<?xml version="1.0" encoding="UTF-8" standalone="no"?>
<svg xmlns="http://www.w3.org/2000/svg" width="1600" height="1000" viewBox="0 0 1600 1000">
<rect width="100%" height="100%" fill="#0b0f1a"/>
<polygon points="90.000,20.000 160.000,90.000 90.000,160.000 20.000,90.000" fill="none" stroke="#c2d0ff" stroke-width="2"/>
<polygon points="90.000,58.500 121.500,90.000 90.000,121.500 58.500,90.000" fill="#c2d0ff" opacity="0.95"/>
<polygon points="90.000,75.067 104.933,90.000 90.000,104.933 75.067,90.000" fill="#c2d0ff" opacity="0.95" transform="rotate(45 90.000 90.000)"/>
<polygon points="216.000,20.000 286.000,90.000 216.000,160.000 146.000,90.000" fill="none" stroke="#c2d0ff" stroke-width="2"/>
<polygon points="216.000,58.500 247.500,90.000 216.000,121.500 184.500,90.000" fill="#c2d0ff" opacity="0.95"/>
<polygon points="216.000,75.067 230.933,90.000 216.000,104.933 201.067,90.000" fill="#c2d0ff" opacity="0.95" transform="rotate(45 216.000 90.000)"/>
<polygon points="342.000,20.000 412.000,90.000 342.000,160.000 272.000,90.000" fill="none" stroke="#c2d0ff" stroke-width="2"/>
<polygon points="342.000,58.500 373.500,90.000 342.000,121.500 310.500,90.000" fill="#c2d0ff" opacity="0.95"/>
<polygon points="342.000,75.067 356.933,90.000 342.000,104.933 327.067,90.000" fill="#c2d0ff" opacity="0.95" transform="rotate(45 342.000 90.000)"/>
<polygon points="468.000,20.000 538.000,90.000 468.000,160.000 398.000,90.000" fill="none" stroke="#c2d0ff" stroke-width="2"/>
<polygon points="468.000,58.500 499.500,90.000 468.000,121.500 436.500,90.000" fill="#c2d0ff" opacity="0.95"/>
<polygon points="468.000,75.067 482.933,90.000 468.000,104.933 453.067,90.000" fill="#c2d0ff" opacity="0.95" transform="rotate(45 468.000 90.000)"/>
<polygon points="594.000,20.000 664.000,90.000 594.000,160.000 524.000,90.000" fill="none" stroke="#c2d0ff" stroke-width="2"/>
<polygon points="594.000,58.500 625.500,90.000 594.000,121.500 562.500,90.000" fill="#c2d0ff" opacity="0.95"/>
<polygon points="594.000,75.067 608.933,90.000 594.000,104.933 579.067,90.000" fill="#c2d0ff" opacity="0.95" transform="rotate(45 594.000 90.000)"/>
<polygon points="720.000,20.000 790.000,90.000 720.000,160.000 650.000,90.000" fill="none" stroke="#c2d0ff" stroke-width="2"/>
<polygon points="720.000,58.500 751.500,90.000 720.000,121.500 688.500,90.000" fill="#c2d0ff" opacity="0.95"/>
<polygon points="720.000,75.067 734.933,90.000 720.000,104.933 705.067,90.000" fill="#c2d0ff" opacity="0.95" transform="rotate(45 720.000 90.000)"/>
<polygon points="846.000,20.000 916.000,90.000 846.000,160.000 776.000,90.000" fill="none" stroke="#c2d0ff" stroke-width="2"/>
<polygon points="846.000,58.500 877.500,90.000 846.000,121.500 814.500,90.000" fill="#c2d0ff" opacity="0.95"/>
<polygon points="846.000,75.067 860.933,90.000 846.000,104.933 831.067,90.000" fill="#c2d0ff" opacity="0.95" transform="rotate(45 846.000 90.000)"/>
<polygon points="972.000,20.000 1042.000,90.000 972.000,160.000 902.000,90.000" fill="none" stroke="#c2d0ff" stroke-width="2"/>
<polygon points="972.000,58.500 1003.500,90.000 972.000,121.500 940.500,90.000" fill="#c2d0ff" opacity="0.95"/>
<polygon points="972.000,75.067 986.933,90.000 972.000,104.933 957.067,90.000" fill="#c2d0ff" opacity="0.95" transform="rotate(45 972.000 90.000)"/>
<polygon points="1098.000,20.000 1168.000,90.000 1098.000,160.000 1028.000,90.000" fill="none" stroke="#c2d0ff" stroke-width="2"/>
<polygon points="1098.000,58.500 1129.500,90.000 1098.000,121.500 1066.500,90.000" fill="#c2d0ff" opacity="0.95"/>
<polygon points="1098.000,75.067 1112.933,90.000 1098.000,104.933 1083.067,90.000" fill="#c2d0ff" opacity="0.95" transform="rotate(45 1098.000 90.000)"/>
<polygon points="1224.000,20.000 1294.000,90.000 1224.000,160.000 1154.000,90.000" fill="none" stroke="#c2d0ff" stroke-width="2"/>
<polygon points="1224.000,58.500 1255.500,90.000 1224.000,121.500 1192.500,90.000" fill="#c2d0ff" opacity="0.95"/>
<polygon points="1224.000,75.067 1238.933,90.000 1224.000,104.933 1209.067,90.000" fill="#c2d0ff" opacity="0.95" transform="rotate(45 1224.000 90.000)"/>
<polygon points="1350.000,20.000 1420.000,90.000 1350.000,160.000 1280.000,90.000" fill="none" stroke="#c2d0ff" stroke-width="2"/>
<polygon points="1350.000,58.500 1381.500,90.000 1350.000,121.500 1318.500,90.000" fill="#c2d0ff" opacity="0.95"/>
<polygon points="1350.000,75.067 1364.933,90.000 1350.000,104.933 1335.067,90.000" fill="#c2d0ff" opacity="0.95" transform="rotate(45 1350.000 90.000)"/>
<polygon points="1476.000,20.000 1546.000,90.000 1476.000,160.000 1406.000,90.000" fill="none" stroke="#c2d0ff" stroke-width="2"/>
<polygon points="1476.000,58.500 1507.500,90.000 1476.000,121.500 1444.500,90.000" fill="#c2d0ff" opacity="0.95"/>
<polygon points="1476.000,75.067 1490.933,90.000 1476.000,104.933 1461.067,90.000" fill="#c2d0ff" opacity="0.95" transform="rotate(45 1476.000 90.000)"/>
<polygon points="1602.000,20.000 1672.000,90.000 1602.000,160.000 1532.000,90.000" fill="none" stroke="#c2d0ff" stroke-width="2"/>
<polygon points="1602.000,58.500 1633.500,90.000 1602.000,121.500 1570.500,90.000" fill="#c2d0ff" opacity="0.95"/>
<polygon points="1602.000,75.067 1616.933,90.000 1602.000,104.933 1587.067,90.000" fill="#c2d0ff" opacity="0.95" transform="rotate(45 1602.000 90.000)"/>
<polygon points="1728.000,20.000 1798.000,90.000 1728.000,160.000 1658.000,90.000" fill="none" stroke="#c2d0ff" stroke-width="2"/>
<polygon points="1728.000,58.500 1759.500,90.000 1728.000,121.500 1696.500,90.000" fill="#c2d0ff" opacity="0.95"/>
<polygon points="1728.000,75.067 1742.933,90.000 1728.000,104.933 1713.067,90.000" fill="#c2d0ff" opacity="0.95" transform="rotate(45 1728.000 90.000)"/>
<polygon points="1854.000,20.000 1924.000,90.000 1854.000,160.000 1784.000,90.000" fill="none" stroke="#c2d0ff" stroke-width="2"/>
<polygon points="1854.000,58.500 1885.500,90.000 1854.000,121.500 1822.500,90.000" fill="#c2d0ff" opacity="0.95"/>
<polygon points="1854.000,75.067 1868.933,90.000 1854.000,104.933 1839.067,90.000" fill="#c2d0ff" opacity="0.95" transform="rotate(45 1854.000 90.000)"/>
<polygon points="153.000,146.000 223.000,216.000 153.000,286.000 83.000,216.000" fill="none" stroke="#c2d0ff" stroke-width="2"/>
<polygon points="153.000,184.500 184.500,216.000 153.000,247.500 121.500,216.000" fill="#c2d0ff" opacity="0.95"/>
<polygon points="153.000,201.067 167.933,216.000 153.000,230.933 138.067,216.000" fill="#c2d0ff" opacity="0.95" transform="rotate(45 153.000 216.000)"/>
<polygon points="279.000,146.000 349.000,216.000 279.000,286.000 209.000,216.000" fill="none" stroke="#c2d0ff" stroke-width="2"/>
<polygon points="279.000,184.500 310.500,216.000 279.000,247.500 247.500,216.000" fill="#c2d0ff" opacity="0.95"/>
<polygon points="279.000,201.067 293.933,216.000 279.000,230.933 264.067,216.000" fill="#c2d0ff" opacity="0.95" transform="rotate(45 279.000 216.000)"/>
<polygon points="405.000,146.000 475.000,216.000 405.000,286.000 335.000,216.000" fill="none" stroke="#c2d0ff" stroke-width="2"/>
<polygon points="405.000,184.500 436.500,216.000 405.000,247.500 373.500,216.000" fill="#c2d0ff" opacity="0.95"/>
<polygon points="405.000,201.067 419.933,216.000 405.000,230.933 390.067,216.000" fill="#c2d0ff" opacity="0.95" transform="rotate(45 405.000 216.000)"/>
<polygon points="531.000,146.000 601.000,216.000 531.000,286.000 461.000,216.000" fill="none" stroke="#c2d0ff" stroke-width="2"/>
<polygon points="531.000,184.500 562.500,216.000 531.000,247.500 499.500,216.000" fill="#c2d0ff" opacity="0.95"/>
<polygon points="531.000,201.067 545.933,216.000 531.000,230.933 516.067,216.000" fill="#c2d0ff" opacity="0.95" transform="rotate(45 531.000 216.000)"/>
<polygon points="657.000,146.000 727.000,216.000 657.000,286.000 587.000,216.000" fill="none" stroke="#c2d0ff" stroke-width="2"/>
<polygon points="657.000,184.500 688.500,216.000 657.000,247.500 625.500,216.000" fill="#c2d0ff" opacity="0.95"/>
<polygon points="657.000,201.067 671.933,216.000 657.000,230.933 642.067,216.000" fill="#c2d0ff" opacity="0.95" transform="rotate(45 657.000 216.000)"/>
<polygon points="783.000,146.000 853.000,216.000 783.000,286.000 713.000,216.000" fill="none" stroke="#c2d0ff" stroke-width="2"/>
<polygon points="783.000,184.500 814.500,216.000 783.000,247.500 751.500,216.000" fill="#c2d0ff" opacity="0.95"/>
<polygon points="783.000,201.067 797.933,216.000 783.000,230.933 768.067,216.000" fill="#c2d0ff" opacity="0.95" transform="rotate(45 783.000 216.000)"/>
<polygon points="909.000,146.000 979.000,216.000 909.000,286.000 839.000,216.000" fill="none" stroke="#c2d0ff" stroke-width="2"/>
<polygon points="909.000,184.500 940.500,216.000 909.000,247.500 877.500,216.000" fill="#c2d0ff" opacity="0.95"/>
<polygon points="909.000,201.067 923.933,216.000 909.000,230.933 894.067,216.000" fill="#c2d0ff" opacity="0.95" transform="rotate(45 909.000 216.000)"/>
<polygon points="1035.000,146.000 1105.000,216.000 1035.000,286.000 965.000,216.000" fill="none" stroke="#c2d0ff" stroke-width="2"/>
<polygon points="1035.000,184.500 1066.500,216.000 1035.000,247.500 1003.500,216.000" fill="#c2d0ff" opacity="0.95"/>
<polygon points="1035.000,201.067 1049.933,216.000 1035.000,230.933 1020.067,216.000" fill="#c2d0ff" opacity="0.95" transform="rotate(45 1035.000 216.000)"/>
<polygon points="1161.000,146.000 1231.000,216.000 1161.000,286.000 1091.000,216.000" fill="none" stroke="#c2d0ff" stroke-width="2"/>
<polygon points="1161.000,184.500 1192.500,216.000 1161.000,247.500 1129.500,216.000" fill="#c2d0ff" opacity="0.95"/>
<polygon points="1161.000,201.067 1175.933,216.000 1161.000,230.933 1146.067,216.000" fill="#c2d0ff" opacity="0.95" transform="rotate(45 1161.000 216.000)"/>
<polygon points="1287.000,146.000 1357.000,216.000 1287.000,286.000 1217.000,216.000" fill="none" stroke="#c2d0ff" stroke-width="2"/>
<polygon points="1287.000,184.500 1318.500,216.000 1287.000,247.500 1255.500,216.000" fill="#c2d0ff" opacity="0.95"/>
<polygon points="1287.000,201.067 1301.933,216.000 1287.000,230.933 1272.067,216.000" fill="#c2d0ff" opacity="0.95" transform="rotate(45 1287.000 216.000)"/>
<polygon points="1413.000,146.000 1483.000,216.000 1413.000,286.000 1343.000,216.000" fill="none" stroke="#c2d0ff" stroke-width="2"/>
<polygon points="1413.000,184.500 1444.500,216.000 1413.000,247.500 1381.500,216.000" fill="#c2d0ff" opacity="0.95"/>
<polygon points="1413.000,201.067 1427.933,216.000 1413.000,230.933 1398.067,216.000" fill="#c2d0ff" opacity="0.95" transform="rotate(45 1413.000 216.000)"/>
<polygon points="1539.000,146.000 1609.000,216.000 1539.000,286.000 1469.000,216.000" fill="none" stroke="#c2d0ff" stroke-width="2"/>
<polygon points="1539.000,184.500 1570.500,216.000 1539.000,247.500 1507.500,216.000" fill="#c2d0ff" opacity="0.95"/>
<polygon points="1539.000,201.067 1553.933,216.000 1539.000,230.933 1524.067,216.000" fill="#c2d0ff" opacity="0.95" transform="rotate(45 1539.000 216.000)"/>
<polygon points="1665.000,146.000 1735.000,216.000 1665.000,286.000 1595.000,216.000" fill="none" stroke="#c2d0ff" stroke-width="2"/>
<polygon points="1665.000,184.500 1696.500,216.000 1665.000,247.500 1633.500,216.000" fill="#c2d0ff" opacity="0.95"/>
<polygon points="1665.000,201.067 1679.933,216.000 1665.000,230.933 1650.067,216.000" fill="#c2d0ff" opacity="0.95" transform="rotate(45 1665.000 216.000)"/>
<polygon points="1791.000,146.000 1861.000,216.000 1791.000,286.000 1721.000,216.000" fill="none" stroke="#c2d0ff" stroke-width="2"/>
<polygon points="1791.000,184.500 1822.500,216.000 1791.000,247.500 1759.500,216.000" fill="#c2d0ff" opacity="0.95"/>
<polygon points="1791.000,201.067 1805.933,216.000 1791.000,230.933 1776.067,216.000" fill="#c2d0ff" opacity="0.95" transform="rotate(45 1791.000 216.000)"/>
<polygon points="1917.000,146.000 1987.000,216.000 1917.000,286.000 1847.000,216.000" fill="none" stroke="#c2d0ff" stroke-width="2"/>
<polygon points="1917.000,184.500 1948.500,216.000 1917.000,247.500 1885.500,216.000" fill="#c2d0ff" opacity="0.95"/>
<polygon points="1917.000,201.067 1931.933,216.000 1917.000,230.933 1902.067,216.000" fill="#c2d0ff" opacity="0.95" transform="rotate(45 1917.000 216.000)"/>
<polygon points="90.000,272.000 160.000,342.000 90.000,412.000 20.000,342.000" fill="none" stroke="#c2d0ff" stroke-width="2"/>
<polygon points="90.000,310.500 121.500,342.000 90.000,373.500 58.500,342.000" fill="#c2d0ff" opacity="0.95"/>
<polygon points="90.000,327.067 104.933,342.000 90.000,356.933 75.067,342.000" fill="#c2d0ff" opacity="0.95" transform="rotate(45 90.000 342.000)"/>
<polygon points="216.000,272.000 286.000,342.000 216.000,412.000 146.000,342.000" fill="none" stroke="#c2d0ff" stroke-width="2"/>
<polygon points="216.000,310.500 247.500,342.000 216.000,373.500 184.500,342.000" fill="#c2d0ff" opacity="0.95"/>
<polygon points="216.000,327.067 230.933,342.000 216.000,356.933 201.067,342.000" fill="#c2d0ff" opacity="0.95" transform="rotate(45 216.000 342.000)"/>
<polygon points="342.000,272.000 412.000,342.000 342.000,412.000 272.000,342.000" fill="none" stroke="#c2d0ff" stroke-width="2"/>
<polygon points="342.000,310.500 373.500,342.000 342.000,373.500 310.500,342.000" fill="#c2d0ff" opacity="0.95"/>
<polygon points="342.000,327.067 356.933,342.000 342.000,356.933 327.067,342.000" fill="#c2d0ff" opacity="0.95" transform="rotate(45 342.000 342.000)"/>
<polygon points="468.000,272.000 538.000,342.000 468.000,412.000 398.000,342.000" fill="none" stroke="#c2d0ff" stroke-width="2"/>
<polygon points="468.000,310.500 499.500,342.000 468.000,373.500 436.500,342.000" fill="#c2d0ff" opacity="0.95"/>
<polygon points="468.000,327.067 482.933,342.000 468.000,356.933 453.067,342.000" fill="#c2d0ff" opacity="0.95" transform="rotate(45 468.000 342.000)"/>
<polygon points="594.000,272.000 664.000,342.000 594.000,412.000 524.000,342.000" fill="none" stroke="#c2d0ff" stroke-width="2"/>
<polygon points="594.000,310.500 625.500,342.000 594.000,373.500 562.500,342.000" fill="#c2d0ff" opacity="0.95"/>
<polygon points="594.000,327.067 608.933,342.000 594.000,356.933 579.067,342.000" fill="#c2d0ff" opacity="0.95" transform="rotate(45 594.000 342.000)"/>
<polygon points="720.000,272.000 790.000,342.000 720.000,412.000 650.000,342.000" fill="none" stroke="#c2d0ff" stroke-width="2"/>
<polygon points="720.000,310.500 751.500,342.000 720.000,373.500 688.500,342.000" fill="#c2d0ff" opacity="0.95"/>
<polygon points="720.000,327.067 734.933,342.000 720.000,356.933 705.067,342.000" fill="#c2d0ff" opacity="0.95" transform="rotate(45 720.000 342.000)"/>
<polygon points="846.000,272.000 916.000,342.000 846.000,412.000 776.000,342.000" fill="none" stroke="#c2d0ff" stroke-width="2"/>
<polygon points="846.000,310.500 877.500,342.000 846.000,373.500 814.500,342.000" fill="#c2d0ff" opacity="0.95"/>
<polygon points="846.000,327.067 860.933,342.000 846.000,356.933 831.067,342.000" fill="#c2d0ff" opacity="0.95" transform="rotate(45 846.000 342.000)"/>
<polygon points="972.000,272.000 1042.000,342.000 972.000,412.000 902.000,342.000" fill="none" stroke="#c2d0ff" stroke-width="2"/>
<polygon points="972.000,310.500 1003.500,342.000 972.000,373.500 940.500,342.000" fill="#c2d0ff" opacity="0.95"/>
<polygon points="972.000,327.067 986.933,342.000 972.000,356.933 957.067,342.000" fill="#c2d0ff" opacity="0.95" transform="rotate(45 972.000 342.000)"/>
<polygon points="1098.000,272.000 1168.000,342.000 1098.000,412.000 1028.000,342.000" fill="none" stroke="#c2d0ff" stroke-width="2"/>
<polygon points="1098.000,310.500 1129.500,342.000 1098.000,373.500 1066.500,342.000" fill="#c2d0ff" opacity="0.95"/>
<polygon points="1098.000,327.067 1112.933,342.000 1098.000,356.933 1083.067,342.000" fill="#c2d0ff" opacity="0.95" transform="rotate(45 1098.000 342.000)"/>
<polygon points="1224.000,272.000 1294.000,342.000 1224.000,412.000 1154.000,342.000" fill="none" stroke="#c2d0ff" stroke-width="2"/>
<polygon points="1224.000,310.500 1255.500,342.000 1224.000,373.500 1192.500,342.000" fill="#c2d0ff" opacity="0.95"/>
<polygon points="1224.000,327.067 1238.933,342.000 1224.000,356.933 1209.067,342.000" fill="#c2d0ff" opacity="0.95" transform="rotate(45 1224.000 342.000)"/>
<polygon points="1350.000,272.000 1420.000,342.000 1350.000,412.000 1280.000,342.000" fill="none" stroke="#c2d0ff" stroke-width="2"/>
<polygon points="1350.000,310.500 1381.500,342.000 1350.000,373.500 1318.500,342.000" fill="#c2d0ff" opacity="0.95"/>
<polygon points="1350.000,327.067 1364.933,342.000 1350.000,356.933 1335.067,342.000" fill="#c2d0ff" opacity="0.95" transform="rotate(45 1350.000 342.000)"/>
<polygon points="1476.000,272.000 1546.000,342.000 1476.000,412.000 1406.000,342.000" fill="none" stroke="#c2d0ff" stroke-width="2"/>
<polygon points="1476.000,310.500 1507.500,342.000 1476.000,373.500 1444.500,342.000" fill="#c2d0ff" opacity="0.95"/>
<polygon points="1476.000,327.067 1490.933,342.000 1476.000,356.933 1461.067,342.000" fill="#c2d0ff" opacity="0.95" transform="rotate(45 1476.000 342.000)"/>
<polygon points="1602.000,272.000 1672.000,342.000 1602.000,412.000 1532.000,342.000" fill="none" stroke="#c2d0ff" stroke-width="2"/>
<polygon points="1602.000,310.500 1633.500,342.000 1602.000,373.500 1570.500,342.000" fill="#c2d0ff" opacity="0.95"/>
<polygon points="1602.000,327.067 1616.933,342.000 1602.000,356.933 1587.067,342.000" fill="#c2d0ff" opacity="0.95" transform="rotate(45 1602.000 342.000)"/>
<polygon points="1728.000,272.000 1798.000,342.000 1728.000,412.000 1658.000,342.000" fill="none" stroke="#c2d0ff" stroke-width="2"/>
<polygon points="1728.000,310.500 1759.500,342.000 1728.000,373.500 1696.500,342.000" fill="#c2d0ff" opacity="0.95"/>
<polygon points="1728.000,327.067 1742.933,342.000 1728.000,356.933 1713.067,342.000" fill="#c2d0ff" opacity="0.95" transform="rotate(45 1728.000 342.000)"/>
<polygon points="1854.000,272.000 1924.000,342.000 1854.000,412.000 1784.000,342.000" fill="none" stroke="#c2d0ff" stroke-width="2"/>
<polygon points="1854.000,310.500 1885.500,342.000 1854.000,373.500 1822.500,342.000" fill="#c2d0ff" opacity="0.95"/>
<polygon points="1854.000,327.067 1868.933,342.000 1854.000,356.933 1839.067,342.000" fill="#c2d0ff" opacity="0.95" transform="rotate(45 1854.000 342.000)"/>
<polygon points="153.000,398.000 223.000,468.000 153.000,538.000 83.000,468.000" fill="none" stroke="#c2d0ff" stroke-width="2"/>
<polygon points="153.000,436.500 184.500,468.000 153.000,499.500 121.500,468.000" fill="#c2d0ff" opacity="0.95"/>
<polygon points="153.000,453.067 167.933,468.000 153.000,482.933 138.067,468.000" fill="#c2d0ff" opacity="0.95" transform="rotate(45 153.000 468.000)"/>
<polygon points="279.000,398.000 349.000,468.000 279.000,538.000 209.000,468.000" fill="none" stroke="#c2d0ff" stroke-width="2"/>
<polygon points="279.000,436.500 310.500,468.000 279.000,499.500 247.500,468.000" fill="#c2d0ff" opacity="0.95"/>
<polygon points="279.000,453.067 293.933,468.000 279.000,482.933 264.067,468.000" fill="#c2d0ff" opacity="0.95" transform="rotate(45 279.000 468.000)"/>
<polygon points="405.000,398.000 475.000,468.000 405.000,538.000 335.000,468.000" fill="none" stroke="#c2d0ff" stroke-width="2"/>
<polygon points="405.000,436.500 436.500,468.000 405.000,499.500 373.500,468.000" fill="#c2d0ff" opacity="0.95"/>
<polygon points="405.000,453.067 419.933,468.000 405.000,482.933 390.067,468.000" fill="#c2d0ff" opacity="0.95" transform="rotate(45 405.000 468.000)"/>
<polygon points="531.000,398.000 601.000,468.000 531.000,538.000 461.000,468.000" fill="none" stroke="#c2d0ff" stroke-width="2"/>
<polygon points="531.000,436.500 562.500,468.000 531.000,499.500 499.500,468.000" fill="#c2d0ff" opacity="0.95"/>
<polygon points="531.000,453.067 545.933,468.000 531.000,482.933 516.067,468.000" fill="#c2d0ff" opacity="0.95" transform="rotate(45 531.000 468.000)"/>
<polygon points="657.000,398.000 727.000,468.000 657.000,538.000 587.000,468.000" fill="none" stroke="#c2d0ff" stroke-width="2"/>
<polygon points="657.000,436.500 688.500,468.000 657.000,499.500 625.500,468.000" fill="#c2d0ff" opacity="0.95"/>
<polygon points="657.000,453.067 671.933,468.000 657.000,482.933 642.067,468.000" fill="#c2d0ff" opacity="0.95" transform="rotate(45 657.000 468.000)"/>
<polygon points="783.000,398.000 853.000,468.000 783.000,538.000 713.000,468.000" fill="none" stroke="#c2d0ff" stroke-width="2"/>
<polygon points="783.000,436.500 814.500,468.000 783.000,499.500 751.500,468.000" fill="#c2d0ff" opacity="0.95"/>
<polygon points="783.000,453.067 797.933,468.000 783.000,482.933 768.067,468.000" fill="#c2d0ff" opacity="0.95" transform="rotate(45 783.000 468.000)"/>
<polygon points="909.000,398.000 979.000,468.000 909.000,538.000 839.000,468.000" fill="none" stroke="#c2d0ff" stroke-width="2"/>
<polygon points="909.000,436.500 940.500,468.000 909.000,499.500 877.500,468.000" fill="#c2d0ff" opacity="0.95"/>
<polygon points="909.000,453.067 923.933,468.000 909.000,482.933 894.067,468.000" fill="#c2d0ff" opacity="0.95" transform="rotate(45 909.000 468.000)"/>
<polygon points="1035.000,398.000 1105.000,468.000 1035.000,538.000 965.000,468.000" fill="none" stroke="#c2d0ff" stroke-width="2"/>
<polygon points="1035.000,436.500 1066.500,468.000 1035.000,499.500 1003.500,468.000" fill="#c2d0ff" opacity="0.95"/>
<polygon points="1035.000,453.067 1049.933,468.000 1035.000,482.933 1020.067,468.000" fill="#c2d0ff" opacity="0.95" transform="rotate(45 1035.000 468.000)"/>
<polygon points="1161.000,398.000 1231.000,468.000 1161.000,538.000 1091.000,468.000" fill="none" stroke="#c2d0ff" stroke-width="2"/>
<polygon points="1161.000,436.500 1192.500,468.000 1161.000,499.500 1129.500,468.000" fill="#c2d0ff" opacity="0.95"/>
<polygon points="1161.000,453.067 1175.933,468.000 1161.000,482.933 1146.067,468.000" fill="#c2d0ff" opacity="0.95" transform="rotate(45 1161.000 468.000)"/>
<polygon points="1287.000,398.000 1357.000,468.000 1287.000,538.000 1217.000,468.000" fill="none" stroke="#c2d0ff" stroke-width="2"/>
<polygon points="1287.000,436.500 1318.500,468.000 1287.000,499.500 1255.500,468.000" fill="#c2d0ff" opacity="0.95"/>
<polygon points="1287.000,453.067 1301.933,468.000 1287.000,482.933 1272.067,468.000" fill="#c2d0ff" opacity="0.95" transform="rotate(45 1287.000 468.000)"/>
<polygon points="1413.000,398.000 1483.000,468.000 1413.000,538.000 1343.000,468.000" fill="none" stroke="#c2d0ff" stroke-width="2"/>
<polygon points="1413.000,436.500 1444.500,468.000 1413.000,499.500 1381.500,468.000" fill="#c2d0ff" opacity="0.95"/>
<polygon points="1413.000,453.067 1427.933,468.000 1413.000,482.933 1398.067,468.000" fill="#c2d0ff" opacity="0.95" transform="rotate(45 1413.000 468.000)"/>
<polygon points="1539.000,398.000 1609.000,468.000 1539.000,538.000 1469.000,468.000" fill="none" stroke="#c2d0ff" stroke-width="2"/>
<polygon points="1539.000,436.500 1570.500,468.000 1539.000,499.500 1507.500,468.000" fill="#c2d0ff" opacity="0.95"/>
<polygon points="1539.000,453.067 1553.933,468.000 1539.000,482.933 1524.067,468.000" fill="#c2d0ff" opacity="0.95" transform="rotate(45 1539.000 468.000)"/>
<polygon points="1665.000,398.000 1735.000,468.000 1665.000,538.000 1595.000,468.000" fill="none" stroke="#c2d0ff" stroke-width="2"/>
<polygon points="1665.000,436.500 1696.500,468.000 1665.000,499.500 1633.500,468.000" fill="#c2d0ff" opacity="0.95"/>
<polygon points="1665.000,453.067 1679.933,468.000 1665.000,482.933 1650.067,468.000" fill="#c2d0ff" opacity="0.95" transform="rotate(45 1665.000 468.000)"/>
<polygon points="1791.000,398.000 1861.000,468.000 1791.000,538.000 1721.000,468.000" fill="none" stroke="#c2d0ff" stroke-width="2"/>
<polygon points="1791.000,436.500 1822.500,468.000 1791.000,499.500 1759.500,468.000" fill="#c2d0ff" opacity="0.95"/>
<polygon points="1791.000,453.067 1805.933,468.000 1791.000,482.933 1776.067,468.000" fill="#c2d0ff" opacity="0.95" transform="rotate(45 1791.000 468.000)"/>
<polygon points="1917.000,398.000 1987.000,468.000 1917.000,538.000 1847.000,468.000" fill="none" stroke="#c2d0ff" stroke-width="2"/>
<polygon points="1917.000,436.500 1948.500,468.000 1917.000,499.500 1885.500,468.000" fill="#c2d0ff" opacity="0.95"/>
<polygon points="1917.000,453.067 1931.933,468.000 1917.000,482.933 1902.067,468.000" fill="#c2d0ff" opacity="0.95" transform="rotate(45 1917.000 468.000)"/>
<polygon points="90.000,524.000 160.000,594.000 90.000,664.000 20.000,594.000" fill="none" stroke="#c2d0ff" stroke-width="2"/>
<polygon points="90.000,562.500 121.500,594.000 90.000,625.500 58.500,594.000" fill="#c2d0ff" opacity="0.95"/>
<polygon points="90.000,579.067 104.933,594.000 90.000,608.933 75.067,594.000" fill="#c2d0ff" opacity="0.95" transform="rotate(45 90.000 594.000)"/>
<polygon points="216.000,524.000 286.000,594.000 216.000,664.000 146.000,594.000" fill="none" stroke="#c2d0ff" stroke-width="2"/>
<polygon points="216.000,562.500 247.500,594.000 216.000,625.500 184.500,594.000" fill="#c2d0ff" opacity="0.95"/>
<polygon points="216.000,579.067 230.933,594.000 216.000,608.933 201.067,594.000" fill="#c2d0ff" opacity="0.95" transform="rotate(45 216.000 594.000)"/>
<polygon points="342.000,524.000 412.000,594.000 342.000,664.000 272.000,594.000" fill="none" stroke="#c2d0ff" stroke-width="2"/>
<polygon points="342.000,562.500 373.500,594.000 342.000,625.500 310.500,594.000" fill="#c2d0ff" opacity="0.95"/>
<polygon points="342.000,579.067 356.933,594.000 342.000,608.933 327.067,594.000" fill="#c2d0ff" opacity="0.95" transform="rotate(45 342.000 594.000)"/>
<polygon points="468.000,524.000 538.000,594.000 468.000,664.000 398.000,594.000" fill="none" stroke="#c2d0ff" stroke-width="2"/>
<polygon points="468.000,562.500 499.500,594.000 468.000,625.500 436.500,594.000" fill="#c2d0ff" opacity="0.95"/>
<polygon points="468.000,579.067 482.933,594.000 468.000,608.933 453.067,594.000" fill="#c2d0ff" opacity="0.95" transform="rotate(45 468.000 594.000)"/>
<polygon points="594.000,524.000 664.000,594.000 594.000,664.000 524.000,594.000" fill="none" stroke="#c2d0ff" stroke-width="2"/>
<polygon points="594.000,562.500 625.500,594.000 594.000,625.500 562.500,594.000" fill="#c2d0ff" opacity="0.95"/>
<polygon points="594.000,579.067 608.933,594.000 594.000,608.933 579.067,594.000" fill="#c2d0ff" opacity="0.95" transform="rotate(45 594.000 594.000)"/>
<polygon points="720.000,524.000 790.000,594.000 720.000,664.000 650.000,594.000" fill="none" stroke="#c2d0ff" stroke-width="2"/>
<polygon points="720.000,562.500 751.500,594.000 720.000,625.500 688.500,594.000" fill="#c2d0ff" opacity="0.95"/>
<polygon points="720.000,579.067 734.933,594.000 720.000,608.933 705.067,594.000" fill="#c2d0ff" opacity="0.95" transform="rotate(45 720.000 594.000)"/>
<polygon points="846.000,524.000 916.000,594.000 846.000,664.000 776.000,594.000" fill="none" stroke="#c2d0ff" stroke-width="2"/>
<polygon points="846.000,562.500 877.500,594.000 846.000,625.500 814.500,594.000" fill="#c2d0ff" opacity="0.95"/>
<polygon points="846.000,579.067 860.933,594.000 846.000,608.933 831.067,594.000" fill="#c2d0ff" opacity="0.95" transform="rotate(45 846.000 594.000)"/>
<polygon points="972.000,524.000 1042.000,594.000 972.000,664.000 902.000,594.000" fill="none" stroke="#c2d0ff" stroke-width="2"/>
<polygon points="972.000,562.500 1003.500,594.000 972.000,625.500 940.500,594.000" fill="#c2d0ff" opacity="0.95"/>
<polygon points="972.000,579.067 986.933,594.000 972.000,608.933 957.067,594.000" fill="#c2d0ff" opacity="0.95" transform="rotate(45 972.000 594.000)"/>
<polygon points="1098.000,524.000 1168.000,594.000 1098.000,664.000 1028.000,594.000" fill="none" stroke="#c2d0ff" stroke-width="2"/>
<polygon points="1098.000,562.500 1129.500,594.000 1098.000,625.500 1066.500,594.000" fill="#c2d0ff" opacity="0.95"/>
<polygon points="1098.000,579.067 1112.933,594.000 1098.000,608.933 1083.067,594.000" fill="#c2d0ff" opacity="0.95" transform="rotate(45 1098.000 594.000)"/>
<polygon points="1224.000,524.000 1294.000,594.000 1224.000,664.000 1154.000,594.000" fill="none" stroke="#c2d0ff" stroke-width="2"/>
<polygon points="1224.000,562.500 1255.500,594.000 1224.000,625.500 1192.500,594.000" fill="#c2d0ff" opacity="0.95"/>
<polygon points="1224.000,579.067 1238.933,594.000 1224.000,608.933 1209.067,594.000" fill="#c2d0ff" opacity="0.95" transform="rotate(45 1224.000 594.000)"/>
<polygon points="1350.000,524.000 1420.000,594.000 1350.000,664.000 1280.000,594.000" fill="none" stroke="#c2d0ff" stroke-width="2"/>
<polygon points="1350.000,562.500 1381.500,594.000 1350.000,625.500 1318.500,594.000" fill="#c2d0ff" opacity="0.95"/>
<polygon points="1350.000,579.067 1364.933,594.000 1350.000,608.933 1335.067,594.000" fill="#c2d0ff" opacity="0.95" transform="rotate(45 1350.000 594.000)"/>
<polygon points="1476.000,524.000 1546.000,594.000 1476.000,664.000 1406.000,594.000" fill="none" stroke="#c2d0ff" stroke-width="2"/>
<polygon points="1476.000,562.500 1507.500,594.000 1476.000,625.500 1444.500,594.000" fill="#c2d0ff" opacity="0.95"/>
<polygon points="1476.000,579.067 1490.933,594.000 1476.000,608.933 1461.067,594.000" fill="#c2d0ff" opacity="0.95" transform="rotate(45 1476.000 594.000)"/>
<polygon points="1602.000,524.000 1672.000,594.000 1602.000,664.000 1532.000,594.000" fill="none" stroke="#c2d0ff" stroke-width="2"/>
<polygon points="1602.000,562.500 1633.500,594.000 1602.000,625.500 1570.500,594.000" fill="#c2d0ff" opacity="0.95"/>
<polygon points="1602.000,579.067 1616.933,594.000 1602.000,608.933 1587.067,594.000" fill="#c2d0ff" opacity="0.95" transform="rotate(45 1602.000 594.000)"/>
<polygon points="1728.000,524.000 1798.000,594.000 1728.000,664.000 1658.000,594.000" fill="none" stroke="#c2d0ff" stroke-width="2"/>
<polygon points="1728.000,562.500 1759.500,594.000 1728.000,625.500 1696.500,594.000" fill="#c2d0ff" opacity="0.95"/>
<polygon points="1728.000,579.067 1742.933,594.000 1728.000,608.933 1713.067,594.000" fill="#c2d0ff" opacity="0.95" transform="rotate(45 1728.000 594.000)"/>
<polygon points="1854.000,524.000 1924.000,594.000 1854.000,664.000 1784.000,594.000" fill="none" stroke="#c2d0ff" stroke-width="2"/>
<polygon points="1854.000,562.500 1885.500,594.000 1854.000,625.500 1822.500,594.000" fill="#c2d0ff" opacity="0.95"/>
<polygon points="1854.000,579.067 1868.933,594.000 1854.000,608.933 1839.067,594.000" fill="#c2d0ff" opacity="0.95" transform="rotate(45 1854.000 594.000)"/>
<polygon points="153.000,650.000 223.000,720.000 153.000,790.000 83.000,720.000" fill="none" stroke="#c2d0ff" stroke-width="2"/>
<polygon points="153.000,688.500 184.500,720.000 153.000,751.500 121.500,720.000" fill="#c2d0ff" opacity="0.95"/>
<polygon points="153.000,705.067 167.933,720.000 153.000,734.933 138.067,720.000" fill="#c2d0ff" opacity="0.95" transform="rotate(45 153.000 720.000)"/>
<polygon points="279.000,650.000 349.000,720.000 279.000,790.000 209.000,720.000" fill="none" stroke="#c2d0ff" stroke-width="2"/>
<polygon points="279.000,688.500 310.500,720.000 279.000,751.500 247.500,720.000" fill="#c2d0ff" opacity="0.95"/>
<polygon points="279.000,705.067 293.933,720.000 279.000,734.933 264.067,720.000" fill="#c2d0ff" opacity="0.95" transform="rotate(45 279.000 720.000)"/>
<polygon points="405.000,650.000 475.000,720.000 405.000,790.000 335.000,720.000" fill="none" stroke="#c2d0ff" stroke-width="2"/>
<polygon points="405.000,688.500 436.500,720.000 405.000,751.500 373.500,720.000" fill="#c2d0ff" opacity="0.95"/>
<polygon points="405.000,705.067 419.933,720.000 405.000,734.933 390.067,720.000" fill="#c2d0ff" opacity="0.95" transform="rotate(45 405.000 720.000)"/>
<polygon points="531.000,650.000 601.000,720.000 531.000,790.000 461.000,720.000" fill="none" stroke="#c2d0ff" stroke-width="2"/>
<polygon points="531.000,688.500 562.500,720.000 531.000,751.500 499.500,720.000" fill="#c2d0ff" opacity="0.95"/>
<polygon points="531.000,705.067 545.933,720.000 531.000,734.933 516.067,720.000" fill="#c2d0ff" opacity="0.95" transform="rotate(45 531.000 720.000)"/>
<polygon points="657.000,650.000 727.000,720.000 657.000,790.000 587.000,720.000" fill="none" stroke="#c2d0ff" stroke-width="2"/>
<polygon points="657.000,688.500 688.500,720.000 657.000,751.500 625.500,720.000" fill="#c2d0ff" opacity="0.95"/>
<polygon points="657.000,705.067 671.933,720.000 657.000,734.933 642.067,720.000" fill="#c2d0ff" opacity="0.95" transform="rotate(45 657.000 720.000)"/>
<polygon points="783.000,650.000 853.000,720.000 783.000,790.000 713.000,720.000" fill="none" stroke="#c2d0ff" stroke-width="2"/>
<polygon points="783.000,688.500 814.500,720.000 783.000,751.500 751.500,720.000" fill="#c2d0ff" opacity="0.95"/>
<polygon points="783.000,705.067 797.933,720.000 783.000,734.933 768.067,720.000" fill="#c2d0ff" opacity="0.95" transform="rotate(45 783.000 720.000)"/>
<polygon points="909.000,650.000 979.000,720.000 909.000,790.000 839.000,720.000" fill="none" stroke="#c2d0ff" stroke-width="2"/>
<polygon points="909.000,688.500 940.500,720.000 909.000,751.500 877.500,720.000" fill="#c2d0ff" opacity="0.95"/>
<polygon points="909.000,705.067 923.933,720.000 909.000,734.933 894.067,720.000" fill="#c2d0ff" opacity="0.95" transform="rotate(45 909.000 720.000)"/>
<polygon points="1035.000,650.000 1105.000,720.000 1035.000,790.000 965.000,720.000" fill="none" stroke="#c2d0ff" stroke-width="2"/>
<polygon points="1035.000,688.500 1066.500,720.000 1035.000,751.500 1003.500,720.000" fill="#c2d0ff" opacity="0.95"/>
<polygon points="1035.000,705.067 1049.933,720.000 1035.000,734.933 1020.067,720.000" fill="#c2d0ff" opacity="0.95" transform="rotate(45 1035.000 720.000)"/>
<polygon points="1161.000,650.000 1231.000,720.000 1161.000,790.000 1091.000,720.000" fill="none" stroke="#c2d0ff" stroke-width="2"/>
<polygon points="1161.000,688.500 1192.500,720.000 1161.000,751.500 1129.500,720.000" fill="#c2d0ff" opacity="0.95"/>
<polygon points="1161.000,705.067 1175.933,720.000 1161.000,734.933 1146.067,720.000" fill="#c2d0ff" opacity="0.95" transform="rotate(45 1161.000 720.000)"/>
<polygon points="1287.000,650.000 1357.000,720.000 1287.000,790.000 1217.000,720.000" fill="none" stroke="#c2d0ff" stroke-width="2"/>
<polygon points="1287.000,688.500 1318.500,720.000 1287.000,751.500 1255.500,720.000" fill="#c2d0ff" opacity="0.95"/>
<polygon points="1287.000,705.067 1301.933,720.000 1287.000,734.933 1272.067,720.000" fill="#c2d0ff" opacity="0.95" transform="rotate(45 1287.000 720.000)"/>
<polygon points="1413.000,650.000 1483.000,720.000 1413.000,790.000 1343.000,720.000" fill="none" stroke="#c2d0ff" stroke-width="2"/>
<polygon points="1413.000,688.500 1444.500,720.000 1413.000,751.500 1381.500,720.000" fill="#c2d0ff" opacity="0.95"/>
<polygon points="1413.000,705.067 1427.933,720.000 1413.000,734.933 1398.067,720.000" fill="#c2d0ff" opacity="0.95" transform="rotate(45 1413.000 720.000)"/>
<polygon points="1539.000,650.000 1609.000,720.000 1539.000,790.000 1469.000,720.000" fill="none" stroke="#c2d0ff" stroke-width="2"/>
<polygon points="1539.000,688.500 1570.500,720.000 1539.000,751.500 1507.500,720.000" fill="#c2d0ff" opacity="0.95"/>
<polygon points="1539.000,705.067 1553.933,720.000 1539.000,734.933 1524.067,720.000" fill="#c2d0ff" opacity="0.95" transform="rotate(45 1539.000 720.000)"/>
<polygon points="1665.000,650.000 1735.000,720.000 1665.000,790.000 1595.000,720.000" fill="none" stroke="#c2d0ff" stroke-width="2"/>
<polygon points="1665.000,688.500 1696.500,720.000 1665.000,751.500 1633.500,720.000" fill="#c2d0ff" opacity="0.95"/>
<polygon points="1665.000,705.067 1679.933,720.000 1665.000,734.933 1650.067,720.000" fill="#c2d0ff" opacity="0.95" transform="rotate(45 1665.000 720.000)"/>
<polygon points="1791.000,650.000 1861.000,720.000 1791.000,790.000 1721.000,720.000" fill="none" stroke="#c2d0ff" stroke-width="2"/>
<polygon points="1791.000,688.500 1822.500,720.000 1791.000,751.500 1759.500,720.000" fill="#c2d0ff" opacity="0.95"/>
<polygon points="1791.000,705.067 1805.933,720.000 1791.000,734.933 1776.067,720.000" fill="#c2d0ff" opacity="0.95" transform="rotate(45 1791.000 720.000)"/>
<polygon points="1917.000,650.000 1987.000,720.000 1917.000,790.000 1847.000,720.000" fill="none" stroke="#c2d0ff" stroke-width="2"/>
<polygon points="1917.000,688.500 1948.500,720.000 1917.000,751.500 1885.500,720.000" fill="#c2d0ff" opacity="0.95"/>
<polygon points="1917.000,705.067 1931.933,720.000 1917.000,734.933 1902.067,720.000" fill="#c2d0ff" opacity="0.95" transform="rotate(45 1917.000 720.000)"/>
<polygon points="90.000,776.000 160.000,846.000 90.000,916.000 20.000,846.000" fill="none" stroke="#c2d0ff" stroke-width="2"/>
<polygon points="90.000,814.500 121.500,846.000 90.000,877.500 58.500,846.000" fill="#c2d0ff" opacity="0.95"/>
<polygon points="90.000,831.067 104.933,846.000 90.000,860.933 75.067,846.000" fill="#c2d0ff" opacity="0.95" transform="rotate(45 90.000 846.000)"/>
<polygon points="216.000,776.000 286.000,846.000 216.000,916.000 146.000,846.000" fill="none" stroke="#c2d0ff" stroke-width="2"/>
<polygon points="216.000,814.500 247.500,846.000 216.000,877.500 184.500,846.000" fill="#c2d0ff" opacity="0.95"/>
<polygon points="216.000,831.067 230.933,846.000 216.000,860.933 201.067,846.000" fill="#c2d0ff" opacity="0.95" transform="rotate(45 216.000 846.000)"/>
<polygon points="342.000,776.000 412.000,846.000 342.000,916.000 272.000,846.000" fill="none" stroke="#c2d0ff" stroke-width="2"/>
<polygon points="342.000,814.500 373.500,846.000 342.000,877.500 310.500,846.000" fill="#c2d0ff" opacity="0.95"/>
<polygon points="342.000,831.067 356.933,846.000 342.000,860.933 327.067,846.000" fill="#c2d0ff" opacity="0.95" transform="rotate(45 342.000 846.000)"/>
<polygon points="468.000,776.000 538.000,846.000 468.000,916.000 398.000,846.000" fill="none" stroke="#c2d0ff" stroke-width="2"/>
<polygon points="468.000,814.500 499.500,846.000 468.000,877.500 436.500,846.000" fill="#c2d0ff" opacity="0.95"/>
<polygon points="468.000,831.067 482.933,846.000 468.000,860.933 453.067,846.000" fill="#c2d0ff" opacity="0.95" transform="rotate(45 468.000 846.000)"/>
<polygon points="594.000,776.000 664.000,846.000 594.000,916.000 524.000,846.000" fill="none" stroke="#c2d0ff" stroke-width="2"/>
<polygon points="594.000,814.500 625.500,846.000 594.000,877.500 562.500,846.000" fill="#c2d0ff" opacity="0.95"/>
<polygon points="594.000,831.067 608.933,846.000 594.000,860.933 579.067,846.000" fill="#c2d0ff" opacity="0.95" transform="rotate(45 594.000 846.000)"/>
<polygon points="720.000,776.000 790.000,846.000 720.000,916.000 650.000,846.000" fill="none" stroke="#c2d0ff" stroke-width="2"/>
<polygon points="720.000,814.500 751.500,846.000 720.000,877.500 688.500,846.000" fill="#c2d0ff" opacity="0.95"/>
<polygon points="720.000,831.067 734.933,846.000 720.000,860.933 705.067,846.000" fill="#c2d0ff" opacity="0.95" transform="rotate(45 720.000 846.000)"/>
<polygon points="846.000,776.000 916.000,846.000 846.000,916.000 776.000,846.000" fill="none" stroke="#c2d0ff" stroke-width="2"/>
<polygon points="846.000,814.500 877.500,846.000 846.000,877.500 814.500,846.000" fill="#c2d0ff" opacity="0.95"/>
<polygon points="846.000,831.067 860.933,846.000 846.000,860.933 831.067,846.000" fill="#c2d0ff" opacity="0.95" transform="rotate(45 846.000 846.000)"/>
<polygon points="972.000,776.000 1042.000,846.000 972.000,916.000 902.000,846.000" fill="none" stroke="#c2d0ff" stroke-width="2"/>
<polygon points="972.000,814.500 1003.500,846.000 972.000,877.500 940.500,846.000" fill="#c2d0ff" opacity="0.95"/>
<polygon points="972.000,831.067 986.933,846.000 972.000,860.933 957.067,846.000" fill="#c2d0ff" opacity="0.95" transform="rotate(45 972.000 846.000)"/>
<polygon points="1098.000,776.000 1168.000,846.000 1098.000,916.000 1028.000,846.000" fill="none" stroke="#c2d0ff" stroke-width="2"/>
<polygon points="1098.000,814.500 1129.500,846.000 1098.000,877.500 1066.500,846.000" fill="#c2d0ff" opacity="0.95"/>
<polygon points="1098.000,831.067 1112.933,846.000 1098.000,860.933 1083.067,846.000" fill="#c2d0ff" opacity="0.95" transform="rotate(45 1098.000 846.000)"/>
<polygon points="1224.000,776.000 1294.000,846.000 1224.000,916.000 1154.000,846.000" fill="none" stroke="#c2d0ff" stroke-width="2"/>
<polygon points="1224.000,814.500 1255.500,846.000 1224.000,877.500 1192.500,846.000" fill="#c2d0ff" opacity="0.95"/>
<polygon points="1224.000,831.067 1238.933,846.000 1224.000,860.933 1209.067,846.000" fill="#c2d0ff" opacity="0.95" transform="rotate(45 1224.000 846.000)"/>
<polygon points="1350.000,776.000 1420.000,846.000 1350.000,916.000 1280.000,846.000" fill="none" stroke="#c2d0ff" stroke-width="2"/>
<polygon points="1350.000,814.500 1381.500,846.000 1350.000,877.500 1318.500,846.000" fill="#c2d0ff" opacity="0.95"/>
<polygon points="1350.000,831.067 1364.933,846.000 1350.000,860.933 1335.067,846.000" fill="#c2d0ff" opacity="0.95" transform="rotate(45 1350.000 846.000)"/>
<polygon points="1476.000,776.000 1546.000,846.000 1476.000,916.000 1406.000,846.000" fill="none" stroke="#c2d0ff" stroke-width="2"/>
<polygon points="1476.000,814.500 1507.500,846.000 1476.000,877.500 1444.500,846.000" fill="#c2d0ff" opacity="0.95"/>
<polygon points="1476.000,831.067 1490.933,846.000 1476.000,860.933 1461.067,846.000" fill="#c2d0ff" opacity="0.95" transform="rotate(45 1476.000 846.000)"/>
<polygon points="1602.000,776.000 1672.000,846.000 1602.000,916.000 1532.000,846.000" fill="none" stroke="#c2d0ff" stroke-width="2"/>
<polygon points="1602.000,814.500 1633.500,846.000 1602.000,877.500 1570.500,846.000" fill="#c2d0ff" opacity="0.95"/>
<polygon points="1602.000,831.067 1616.933,846.000 1602.000,860.933 1587.067,846.000" fill="#c2d0ff" opacity="0.95" transform="rotate(45 1602.000 846.000)"/>
<polygon points="1728.000,776.000 1798.000,846.000 1728.000,916.000 1658.000,846.000" fill="none" stroke="#c2d0ff" stroke-width="2"/>
<polygon points="1728.000,814.500 1759.500,846.000 1728.000,877.500 1696.500,846.000" fill="#c2d0ff" opacity="0.95"/>
<polygon points="1728.000,831.067 1742.933,846.000 1728.000,860.933 1713.067,846.000" fill="#c2d0ff" opacity="0.95" transform="rotate(45 1728.000 846.000)"/>
<polygon points="1854.000,776.000 1924.000,846.000 1854.000,916.000 1784.000,846.000" fill="none" stroke="#c2d0ff" stroke-width="2"/>
<polygon points="1854.000,814.500 1885.500,846.000 1854.000,877.500 1822.500,846.000" fill="#c2d0ff" opacity="0.95"/>
<polygon points="1854.000,831.067 1868.933,846.000 1854.000,860.933 1839.067,846.000" fill="#c2d0ff" opacity="0.95" transform="rotate(45 1854.000 846.000)"/>
<polygon points="153.000,902.000 223.000,972.000 153.000,1042.000 83.000,972.000" fill="none" stroke="#c2d0ff" stroke-width="2"/>
<polygon points="153.000,940.500 184.500,972.000 153.000,1003.500 121.500,972.000" fill="#c2d0ff" opacity="0.95"/>
<polygon points="153.000,957.067 167.933,972.000 153.000,986.933 138.067,972.000" fill="#c2d0ff" opacity="0.95" transform="rotate(45 153.000 972.000)"/>
<polygon points="279.000,902.000 349.000,972.000 279.000,1042.000 209.000,972.000" fill="none" stroke="#c2d0ff" stroke-width="2"/>
<polygon points="279.000,940.500 310.500,972.000 279.000,1003.500 247.500,972.000" fill="#c2d0ff" opacity="0.95"/>
<polygon points="279.000,957.067 293.933,972.000 279.000,986.933 264.067,972.000" fill="#c2d0ff" opacity="0.95" transform="rotate(45 279.000 972.000)"/>
<polygon points="405.000,902.000 475.000,972.000 405.000,1042.000 335.000,972.000" fill="none" stroke="#c2d0ff" stroke-width="2"/>
<polygon points="405.000,940.500 436.500,972.000 405.000,1003.500 373.500,972.000" fill="#c2d0ff" opacity="0.95"/>
<polygon points="405.000,957.067 419.933,972.000 405.000,986.933 390.067,972.000" fill="#c2d0ff" opacity="0.95" transform="rotate(45 405.000 972.000)"/>
<polygon points="531.000,902.000 601.000,972.000 531.000,1042.000 461.000,972.000" fill="none" stroke="#c2d0ff" stroke-width="2"/>
<polygon points="531.000,940.500 562.500,972.000 531.000,1003.500 499.500,972.000" fill="#c2d0ff" opacity="0.95"/>
<polygon points="531.000,957.067 545.933,972.000 531.000,986.933 516.067,972.000" fill="#c2d0ff" opacity="0.95" transform="rotate(45 531.000 972.000)"/>
<polygon points="657.000,902.000 727.000,972.000 657.000,1042.000 587.000,972.000" fill="none" stroke="#c2d0ff" stroke-width="2"/>
<polygon points="657.000,940.500 688.500,972.000 657.000,1003.500 625.500,972.000" fill="#c2d0ff" opacity="0.95"/>
<polygon points="657.000,957.067 671.933,972.000 657.000,986.933 642.067,972.000" fill="#c2d0ff" opacity="0.95" transform="rotate(45 657.000 972.000)"/>
<polygon points="783.000,902.000 853.000,972.000 783.000,1042.000 713.000,972.000" fill="none" stroke="#c2d0ff" stroke-width="2"/>
<polygon points="783.000,940.500 814.500,972.000 783.000,1003.500 751.500,972.000" fill="#c2d0ff" opacity="0.95"/>
<polygon points="783.000,957.067 797.933,972.000 783.000,986.933 768.067,972.000" fill="#c2d0ff" opacity="0.95" transform="rotate(45 783.000 972.000)"/>
<polygon points="909.000,902.000 979.000,972.000 909.000,1042.000 839.000,972.000" fill="none" stroke="#c2d0ff" stroke-width="2"/>
<polygon points="909.000,940.500 940.500,972.000 909.000,1003.500 877.500,972.000" fill="#c2d0ff" opacity="0.95"/>
<polygon points="909.000,957.067 923.933,972.000 909.000,986.933 894.067,972.000" fill="#c2d0ff" opacity="0.95" transform="rotate(45 909.000 972.000)"/>
<polygon points="1035.000,902.000 1105.000,972.000 1035.000,1042.000 965.000,972.000" fill="none" stroke="#c2d0ff" stroke-width="2"/>
<polygon points="1035.000,940.500 1066.500,972.000 1035.000,1003.500 1003.500,972.000" fill="#c2d0ff" opacity="0.95"/>
<polygon points="1035.000,957.067 1049.933,972.000 1035.000,986.933 1020.067,972.000" fill="#c2d0ff" opacity="0.95" transform="rotate(45 1035.000 972.000)"/>
<polygon points="1161.000,902.000 1231.000,972.000 1161.000,1042.000 1091.000,972.000" fill="none" stroke="#c2d0ff" stroke-width="2"/>
<polygon points="1161.000,940.500 1192.500,972.000 1161.000,1003.500 1129.500,972.000" fill="#c2d0ff" opacity="0.95"/>
<polygon points="1161.000,957.067 1175.933,972.000 1161.000,986.933 1146.067,972.000" fill="#c2d0ff" opacity="0.95" transform="rotate(45 1161.000 972.000)"/>
<polygon points="1287.000,902.000 1357.000,972.000 1287.000,1042.000 1217.000,972.000" fill="none" stroke="#c2d0ff" stroke-width="2"/>
<polygon points="1287.000,940.500 1318.500,972.000 1287.000,1003.500 1255.500,972.000" fill="#c2d0ff" opacity="0.95"/>
<polygon points="1287.000,957.067 1301.933,972.000 1287.000,986.933 1272.067,972.000" fill="#c2d0ff" opacity="0.95" transform="rotate(45 1287.000 972.000)"/>
<polygon points="1413.000,902.000 1483.000,972.000 1413.000,1042.000 1343.000,972.000" fill="none" stroke="#c2d0ff" stroke-width="2"/>
<polygon points="1413.000,940.500 1444.500,972.000 1413.000,1003.500 1381.500,972.000" fill="#c2d0ff" opacity="0.95"/>
<polygon points="1413.000,957.067 1427.933,972.000 1413.000,986.933 1398.067,972.000" fill="#c2d0ff" opacity="0.95" transform="rotate(45 1413.000 972.000)"/>
<polygon points="1539.000,902.000 1609.000,972.000 1539.000,1042.000 1469.000,972.000" fill="none" stroke="#c2d0ff" stroke-width="2"/>
<polygon points="1539.000,940.500 1570.500,972.000 1539.000,1003.500 1507.500,972.000" fill="#c2d0ff" opacity="0.95"/>
<polygon points="1539.000,957.067 1553.933,972.000 1539.000,986.933 1524.067,972.000" fill="#c2d0ff" opacity="0.95" transform="rotate(45 1539.000 972.000)"/>
<polygon points="1665.000,902.000 1735.000,972.000 1665.000,1042.000 1595.000,972.000" fill="none" stroke="#c2d0ff" stroke-width="2"/>
<polygon points="1665.000,940.500 1696.500,972.000 1665.000,1003.500 1633.500,972.000" fill="#c2d0ff" opacity="0.95"/>
<polygon points="1665.000,957.067 1679.933,972.000 1665.000,986.933 1650.067,972.000" fill="#c2d0ff" opacity="0.95" transform="rotate(45 1665.000 972.000)"/>
<polygon points="1791.000,902.000 1861.000,972.000 1791.000,1042.000 1721.000,972.000" fill="none" stroke="#c2d0ff" stroke-width="2"/>
<polygon points="1791.000,940.500 1822.500,972.000 1791.000,1003.500 1759.500,972.000" fill="#c2d0ff" opacity="0.95"/>
<polygon points="1791.000,957.067 1805.933,972.000 1791.000,986.933 1776.067,972.000" fill="#c2d0ff" opacity="0.95" transform="rotate(45 1791.000 972.000)"/>
<polygon points="1917.000,902.000 1987.000,972.000 1917.000,1042.000 1847.000,972.000" fill="none" stroke="#c2d0ff" stroke-width="2"/>
<polygon points="1917.000,940.500 1948.500,972.000 1917.000,1003.500 1885.500,972.000" fill="#c2d0ff" opacity="0.95"/>
<polygon points="1917.000,957.067 1931.933,972.000 1917.000,986.933 1902.067,972.000" fill="#c2d0ff" opacity="0.95" transform="rotate(45 1917.000 972.000)"/>
<polygon points="90.000,1028.000 160.000,1098.000 90.000,1168.000 20.000,1098.000" fill="none" stroke="#c2d0ff" stroke-width="2"/>
<polygon points="90.000,1066.500 121.500,1098.000 90.000,1129.500 58.500,1098.000" fill="#c2d0ff" opacity="0.95"/>
<polygon points="90.000,1083.067 104.933,1098.000 90.000,1112.933 75.067,1098.000" fill="#c2d0ff" opacity="0.95" transform="rotate(45 90.000 1098.000)"/>
<polygon points="216.000,1028.000 286.000,1098.000 216.000,1168.000 146.000,1098.000" fill="none" stroke="#c2d0ff" stroke-width="2"/>
<polygon points="216.000,1066.500 247.500,1098.000 216.000,1129.500 184.500,1098.000" fill="#c2d0ff" opacity="0.95"/>
<polygon points="216.000,1083.067 230.933,1098.000 216.000,1112.933 201.067,1098.000" fill="#c2d0ff" opacity="0.95" transform="rotate(45 216.000 1098.000)"/>
<polygon points="342.000,1028.000 412.000,1098.000 342.000,1168.000 272.000,1098.000" fill="none" stroke="#c2d0ff" stroke-width="2"/>
<polygon points="342.000,1066.500 373.500,1098.000 342.000,1129.500 310.500,1098.000" fill="#c2d0ff" opacity="0.95"/>
<polygon points="342.000,1083.067 356.933,1098.000 342.000,1112.933 327.067,1098.000" fill="#c2d0ff" opacity="0.95" transform="rotate(45 342.000 1098.000)"/>
<polygon points="468.000,1028.000 538.000,1098.000 468.000,1168.000 398.000,1098.000" fill="none" stroke="#c2d0ff" stroke-width="2"/>
<polygon points="468.000,1066.500 499.500,1098.000 468.000,1129.500 436.500,1098.000" fill="#c2d0ff" opacity="0.95"/>
<polygon points="468.000,1083.067 482.933,1098.000 468.000,1112.933 453.067,1098.000" fill="#c2d0ff" opacity="0.95" transform="rotate(45 468.000 1098.000)"/>
<polygon points="594.000,1028.000 664.000,1098.000 594.000,1168.000 524.000,1098.000" fill="none" stroke="#c2d0ff" stroke-width="2"/>
<polygon points="594.000,1066.500 625.500,1098.000 594.000,1129.500 562.500,1098.000" fill="#c2d0ff" opacity="0.95"/>
<polygon points="594.000,1083.067 608.933,1098.000 594.000,1112.933 579.067,1098.000" fill="#c2d0ff" opacity="0.95" transform="rotate(45 594.000 1098.000)"/>
<polygon points="720.000,1028.000 790.000,1098.000 720.000,1168.000 650.000,1098.000" fill="none" stroke="#c2d0ff" stroke-width="2"/>
<polygon points="720.000,1066.500 751.500,1098.000 720.000,1129.500 688.500,1098.000" fill="#c2d0ff" opacity="0.95"/>
<polygon points="720.000,1083.067 734.933,1098.000 720.000,1112.933 705.067,1098.000" fill="#c2d0ff" opacity="0.95" transform="rotate(45 720.000 1098.000)"/>
<polygon points="846.000,1028.000 916.000,1098.000 846.000,1168.000 776.000,1098.000" fill="none" stroke="#c2d0ff" stroke-width="2"/>
<polygon points="846.000,1066.500 877.500,1098.000 846.000,1129.500 814.500,1098.000" fill="#c2d0ff" opacity="0.95"/>
<polygon points="846.000,1083.067 860.933,1098.000 846.000,1112.933 831.067,1098.000" fill="#c2d0ff" opacity="0.95" transform="rotate(45 846.000 1098.000)"/>
<polygon points="972.000,1028.000 1042.000,1098.000 972.000,1168.000 902.000,1098.000" fill="none" stroke="#c2d0ff" stroke-width="2"/>
<polygon points="972.000,1066.500 1003.500,1098.000 972.000,1129.500 940.500,1098.000" fill="#c2d0ff" opacity="0.95"/>
<polygon points="972.000,1083.067 986.933,1098.000 972.000,1112.933 957.067,1098.000" fill="#c2d0ff" opacity="0.95" transform="rotate(45 972.000 1098.000)"/>
<polygon points="1098.000,1028.000 1168.000,1098.000 1098.000,1168.000 1028.000,1098.000" fill="none" stroke="#c2d0ff" stroke-width="2"/>
<polygon points="1098.000,1066.500 1129.500,1098.000 1098.000,1129.500 1066.500,1098.000" fill="#c2d0ff" opacity="0.95"/>
<polygon points="1098.000,1083.067 1112.933,1098.000 1098.000,1112.933 1083.067,1098.000" fill="#c2d0ff" opacity="0.95" transform="rotate(45 1098.000 1098.000)"/>
<polygon points="1224.000,1028.000 1294.000,1098.000 1224.000,1168.000 1154.000,1098.000" fill="none" stroke="#c2d0ff" stroke-width="2"/>
<polygon points="1224.000,1066.500 1255.500,1098.000 1224.000,1129.500 1192.500,1098.000" fill="#c2d0ff" opacity="0.95"/>
<polygon points="1224.000,1083.067 1238.933,1098.000 1224.000,1112.933 1209.067,1098.000" fill="#c2d0ff" opacity="0.95" transform="rotate(45 1224.000 1098.000)"/>
<polygon points="1350.000,1028.000 1420.000,1098.000 1350.000,1168.000 1280.000,1098.000" fill="none" stroke="#c2d0ff" stroke-width="2"/>
<polygon points="1350.000,1066.500 1381.500,1098.000 1350.000,1129.500 1318.500,1098.000" fill="#c2d0ff" opacity="0.95"/>
<polygon points="1350.000,1083.067 1364.933,1098.000 1350.000,1112.933 1335.067,1098.000" fill="#c2d0ff" opacity="0.95" transform="rotate(45 1350.000 1098.000)"/>
<polygon points="1476.000,1028.000 1546.000,1098.000 1476.000,1168.000 1406.000,1098.000" fill="none" stroke="#c2d0ff" stroke-width="2"/>
<polygon points="1476.000,1066.500 1507.500,1098.000 1476.000,1129.500 1444.500,1098.000" fill="#c2d0ff" opacity="0.95"/>
<polygon points="1476.000,1083.067 1490.933,1098.000 1476.000,1112.933 1461.067,1098.000" fill="#c2d0ff" opacity="0.95" transform="rotate(45 1476.000 1098.000)"/>
<polygon points="1602.000,1028.000 1672.000,1098.000 1602.000,1168.000 1532.000,1098.000" fill="none" stroke="#c2d0ff" stroke-width="2"/>
<polygon points="1602.000,1066.500 1633.500,1098.000 1602.000,1129.500 1570.500,1098.000" fill="#c2d0ff" opacity="0.95"/>
<polygon points="1602.000,1083.067 1616.933,1098.000 1602.000,1112.933 1587.067,1098.000" fill="#c2d0ff" opacity="0.95" transform="rotate(45 1602.000 1098.000)"/>
<polygon points="1728.000,1028.000 1798.000,1098.000 1728.000,1168.000 1658.000,1098.000" fill="none" stroke="#c2d0ff" stroke-width="2"/>
<polygon points="1728.000,1066.500 1759.500,1098.000 1728.000,1129.500 1696.500,1098.000" fill="#c2d0ff" opacity="0.95"/>
<polygon points="1728.000,1083.067 1742.933,1098.000 1728.000,1112.933 1713.067,1098.000" fill="#c2d0ff" opacity="0.95" transform="rotate(45 1728.000 1098.000)"/>
<polygon points="1854.000,1028.000 1924.000,1098.000 1854.000,1168.000 1784.000,1098.000" fill="none" stroke="#c2d0ff" stroke-width="2"/>
<polygon points="1854.000,1066.500 1885.500,1098.000 1854.000,1129.500 1822.500,1098.000" fill="#c2d0ff" opacity="0.95"/>
<polygon points="1854.000,1083.067 1868.933,1098.000 1854.000,1112.933 1839.067,1098.000" fill="#c2d0ff" opacity="0.95" transform="rotate(45 1854.000 1098.000)"/>
<polygon points="153.000,1154.000 223.000,1224.000 153.000,1294.000 83.000,1224.000" fill="none" stroke="#c2d0ff" stroke-width="2"/>
<polygon points="153.000,1192.500 184.500,1224.000 153.000,1255.500 121.500,1224.000" fill="#c2d0ff" opacity="0.95"/>
<polygon points="153.000,1209.067 167.933,1224.000 153.000,1238.933 138.067,1224.000" fill="#c2d0ff" opacity="0.95" transform="rotate(45 153.000 1224.000)"/>
<polygon points="279.000,1154.000 349.000,1224.000 279.000,1294.000 209.000,1224.000" fill="none" stroke="#c2d0ff" stroke-width="2"/>
<polygon points="279.000,1192.500 310.500,1224.000 279.000,1255.500 247.500,1224.000" fill="#c2d0ff" opacity="0.95"/>
<polygon points="279.000,1209.067 293.933,1224.000 279.000,1238.933 264.067,1224.000" fill="#c2d0ff" opacity="0.95" transform="rotate(45 279.000 1224.000)"/>
<polygon points="405.000,1154.000 475.000,1224.000 405.000,1294.000 335.000,1224.000" fill="none" stroke="#c2d0ff" stroke-width="2"/>
<polygon points="405.000,1192.500 436.500,1224.000 405.000,1255.500 373.500,1224.000" fill="#c2d0ff" opacity="0.95"/>
<polygon points="405.000,1209.067 419.933,1224.000 405.000,1238.933 390.067,1224.000" fill="#c2d0ff" opacity="0.95" transform="rotate(45 405.000 1224.000)"/>
<polygon points="531.000,1154.000 601.000,1224.000 531.000,1294.000 461.000,1224.000" fill="none" stroke="#c2d0ff" stroke-width="2"/>
<polygon points="531.000,1192.500 562.500,1224.000 531.000,1255.500 499.500,1224.000" fill="#c2d0ff" opacity="0.95"/>
<polygon points="531.000,1209.067 545.933,1224.000 531.000,1238.933 516.067,1224.000" fill="#c2d0ff" opacity="0.95" transform="rotate(45 531.000 1224.000)"/>
<polygon points="657.000,1154.000 727.000,1224.000 657.000,1294.000 587.000,1224.000" fill="none" stroke="#c2d0ff" stroke-width="2"/>
<polygon points="657.000,1192.500 688.500,1224.000 657.000,1255.500 625.500,1224.000" fill="#c2d0ff" opacity="0.95"/>
<polygon points="657.000,1209.067 671.933,1224.000 657.000,1238.933 642.067,1224.000" fill="#c2d0ff" opacity="0.95" transform="rotate(45 657.000 1224.000)"/>
<polygon points="783.000,1154.000 853.000,1224.000 783.000,1294.000 713.000,1224.000" fill="none" stroke="#c2d0ff" stroke-width="2"/>
<polygon points="783.000,1192.500 814.500,1224.000 783.000,1255.500 751.500,1224.000" fill="#c2d0ff" opacity="0.95"/>
<polygon points="783.000,1209.067 797.933,1224.000 783.000,1238.933 768.067,1224.000" fill="#c2d0ff" opacity="0.95" transform="rotate(45 783.000 1224.000)"/>
<polygon points="909.000,1154.000 979.000,1224.000 909.000,1294.000 839.000,1224.000" fill="none" stroke="#c2d0ff" stroke-width="2"/>
<polygon points="909.000,1192.500 940.500,1224.000 909.000,1255.500 877.500,1224.000" fill="#c2d0ff" opacity="0.95"/>
<polygon points="909.000,1209.067 923.933,1224.000 909.000,1238.933 894.067,1224.000" fill="#c2d0ff" opacity="0.95" transform="rotate(45 909.000 1224.000)"/>
<polygon points="1035.000,1154.000 1105.000,1224.000 1035.000,1294.000 965.000,1224.000" fill="none" stroke="#c2d0ff" stroke-width="2"/>
<polygon points="1035.000,1192.500 1066.500,1224.000 1035.000,1255.500 1003.500,1224.000" fill="#c2d0ff" opacity="0.95"/>
<polygon points="1035.000,1209.067 1049.933,1224.000 1035.000,1238.933 1020.067,1224.000" fill="#c2d0ff" opacity="0.95" transform="rotate(45 1035.000 1224.000)"/>
<polygon points="1161.000,1154.000 1231.000,1224.000 1161.000,1294.000 1091.000,1224.000" fill="none" stroke="#c2d0ff" stroke-width="2"/>
<polygon points="1161.000,1192.500 1192.500,1224.000 1161.000,1255.500 1129.500,1224.000" fill="#c2d0ff" opacity="0.95"/>
<polygon points="1161.000,1209.067 1175.933,1224.000 1161.000,1238.933 1146.067,1224.000" fill="#c2d0ff" opacity="0.95" transform="rotate(45 1161.000 1224.000)"/>
<polygon points="1287.000,1154.000 1357.000,1224.000 1287.000,1294.000 1217.000,1224.000" fill="none" stroke="#c2d0ff" stroke-width="2"/>
<polygon points="1287.000,1192.500 1318.500,1224.000 1287.000,1255.500 1255.500,1224.000" fill="#c2d0ff" opacity="0.95"/>
<polygon points="1287.000,1209.067 1301.933,1224.000 1287.000,1238.933 1272.067,1224.000" fill="#c2d0ff" opacity="0.95" transform="rotate(45 1287.000 1224.000)"/>
<polygon points="1413.000,1154.000 1483.000,1224.000 1413.000,1294.000 1343.000,1224.000" fill="none" stroke="#c2d0ff" stroke-width="2"/>
<polygon points="1413.000,1192.500 1444.500,1224.000 1413.000,1255.500 1381.500,1224.000" fill="#c2d0ff" opacity="0.95"/>
<polygon points="1413.000,1209.067 1427.933,1224.000 1413.000,1238.933 1398.067,1224.000" fill="#c2d0ff" opacity="0.95" transform="rotate(45 1413.000 1224.000)"/>
<polygon points="1539.000,1154.000 1609.000,1224.000 1539.000,1294.000 1469.000,1224.000" fill="none" stroke="#c2d0ff" stroke-width="2"/>
<polygon points="1539.000,1192.500 1570.500,1224.000 1539.000,1255.500 1507.500,1224.000" fill="#c2d0ff" opacity="0.95"/>
<polygon points="1539.000,1209.067 1553.933,1224.000 1539.000,1238.933 1524.067,1224.000" fill="#c2d0ff" opacity="0.95" transform="rotate(45 1539.000 1224.000)"/>
<polygon points="1665.000,1154.000 1735.000,1224.000 1665.000,1294.000 1595.000,1224.000" fill="none" stroke="#c2d0ff" stroke-width="2"/>
<polygon points="1665.000,1192.500 1696.500,1224.000 1665.000,1255.500 1633.500,1224.000" fill="#c2d0ff" opacity="0.95"/>
<polygon points="1665.000,1209.067 1679.933,1224.000 1665.000,1238.933 1650.067,1224.000" fill="#c2d0ff" opacity="0.95" transform="rotate(45 1665.000 1224.000)"/>
<polygon points="1791.000,1154.000 1861.000,1224.000 1791.000,1294.000 1721.000,1224.000" fill="none" stroke="#c2d0ff" stroke-width="2"/>
<polygon points="1791.000,1192.500 1822.500,1224.000 1791.000,1255.500 1759.500,1224.000" fill="#c2d0ff" opacity="0.95"/>
<polygon points="1791.000,1209.067 1805.933,1224.000 1791.000,1238.933 1776.067,1224.000" fill="#c2d0ff" opacity="0.95" transform="rotate(45 1791.000 1224.000)"/>
<polygon points="1917.000,1154.000 1987.000,1224.000 1917.000,1294.000 1847.000,1224.000" fill="none" stroke="#c2d0ff" stroke-width="2"/>
<polygon points="1917.000,1192.500 1948.500,1224.000 1917.000,1255.500 1885.500,1224.000" fill="#c2d0ff" opacity="0.95"/>
<polygon points="1917.000,1209.067 1931.933,1224.000 1917.000,1238.933 1902.067,1224.000" fill="#c2d0ff" opacity="0.95" transform="rotate(45 1917.000 1224.000)"/>
</svg>