<?xml version="1.0" encoding="UTF-8" standalone="no"?>
<svg xmlns="http://www.w3.org/2000/svg" width="1600" height="1000" viewBox="0 0 1600 1000">
<rect width="100%" height="100%" fill="#0b0f1a"/>
<polygon points="75.000,0.000 150.000,75.000 75.000,150.000 0.000,75.000" fill="none" stroke="#c2d0ff" stroke-width="2"/>
<polygon points="75.000,45.000 105.000,75.000 75.000,105.000 45.000,75.000" fill="#c2d0ff"/>
<polygon points="75.000,54.000 96.000,75.000 75.000,96.000 54.000,75.000" fill="#c2d0ff" transform="rotate(45 75.000 75.000)"/>
<polygon points="202.500,0.000 277.500,75.000 202.500,150.000 127.500,75.000" fill="none" stroke="#c2d0ff" stroke-width="2"/>
<polygon points="202.500,45.000 232.500,75.000 202.500,105.000 172.500,75.000" fill="#c2d0ff"/>
<polygon points="202.500,54.000 223.500,75.000 202.500,96.000 181.500,75.000" fill="#c2d0ff" transform="rotate(45 202.500 75.000)"/>
<polygon points="330.000,0.000 405.000,75.000 330.000,150.000 255.000,75.000" fill="none" stroke="#c2d0ff" stroke-width="2"/>
<polygon points="330.000,45.000 360.000,75.000 330.000,105.000 300.000,75.000" fill="#c2d0ff"/>
<polygon points="330.000,54.000 351.000,75.000 330.000,96.000 309.000,75.000" fill="#c2d0ff" transform="rotate(45 330.000 75.000)"/>
<polygon points="457.500,0.000 532.500,75.000 457.500,150.000 382.500,75.000" fill="none" stroke="#c2d0ff" stroke-width="2"/>
<polygon points="457.500,45.000 487.500,75.000 457.500,105.000 427.500,75.000" fill="#c2d0ff"/>
<polygon points="457.500,54.000 478.500,75.000 457.500,96.000 436.500,75.000" fill="#c2d0ff" transform="rotate(45 457.500 75.000)"/>
<polygon points="585.000,0.000 660.000,75.000 585.000,150.000 510.000,75.000" fill="none" stroke="#c2d0ff" stroke-width="2"/>
<polygon points="585.000,45.000 615.000,75.000 585.000,105.000 555.000,75.000" fill="#c2d0ff"/>
<polygon points="585.000,54.000 606.000,75.000 585.000,96.000 564.000,75.000" fill="#c2d0ff" transform="rotate(45 585.000 75.000)"/>
<polygon points="712.500,0.000 787.500,75.000 712.500,150.000 637.500,75.000" fill="none" stroke="#c2d0ff" stroke-width="2"/>
<polygon points="712.500,45.000 742.500,75.000 712.500,105.000 682.500,75.000" fill="#c2d0ff"/>
<polygon points="712.500,54.000 733.500,75.000 712.500,96.000 691.500,75.000" fill="#c2d0ff" transform="rotate(45 712.500 75.000)"/>
<polygon points="840.000,0.000 915.000,75.000 840.000,150.000 765.000,75.000" fill="none" stroke="#c2d0ff" stroke-width="2"/>
<polygon points="840.000,45.000 870.000,75.000 840.000,105.000 810.000,75.000" fill="#c2d0ff"/>
<polygon points="840.000,54.000 861.000,75.000 840.000,96.000 819.000,75.000" fill="#c2d0ff" transform="rotate(45 840.000 75.000)"/>
<polygon points="967.500,0.000 1042.500,75.000 967.500,150.000 892.500,75.000" fill="none" stroke="#c2d0ff" stroke-width="2"/>
<polygon points="967.500,45.000 997.500,75.000 967.500,105.000 937.500,75.000" fill="#c2d0ff"/>
<polygon points="967.500,54.000 988.500,75.000 967.500,96.000 946.500,75.000" fill="#c2d0ff" transform="rotate(45 967.500 75.000)"/>
<polygon points="1095.000,0.000 1170.000,75.000 1095.000,150.000 1020.000,75.000" fill="none" stroke="#c2d0ff" stroke-width="2"/>
<polygon points="1095.000,45.000 1125.000,75.000 1095.000,105.000 1065.000,75.000" fill="#c2d0ff"/>
<polygon points="1095.000,54.000 1116.000,75.000 1095.000,96.000 1074.000,75.000" fill="#c2d0ff" transform="rotate(45 1095.000 75.000)"/>
<polygon points="1222.500,0.000 1297.500,75.000 1222.500,150.000 1147.500,75.000" fill="none" stroke="#c2d0ff" stroke-width="2"/>
<polygon points="1222.500,45.000 1252.500,75.000 1222.500,105.000 1192.500,75.000" fill="#c2d0ff"/>
<polygon points="1222.500,54.000 1243.500,75.000 1222.500,96.000 1201.500,75.000" fill="#c2d0ff" transform="rotate(45 1222.500 75.000)"/>
<polygon points="1350.000,0.000 1425.000,75.000 1350.000,150.000 1275.000,75.000" fill="none" stroke="#c2d0ff" stroke-width="2"/>
<polygon points="1350.000,45.000 1380.000,75.000 1350.000,105.000 1320.000,75.000" fill="#c2d0ff"/>
<polygon points="1350.000,54.000 1371.000,75.000 1350.000,96.000 1329.000,75.000" fill="#c2d0ff" transform="rotate(45 1350.000 75.000)"/>
<polygon points="1477.500,0.000 1552.500,75.000 1477.500,150.000 1402.500,75.000" fill="none" stroke="#c2d0ff" stroke-width="2"/>
<polygon points="1477.500,45.000 1507.500,75.000 1477.500,105.000 1447.500,75.000" fill="#c2d0ff"/>
<polygon points="1477.500,54.000 1498.500,75.000 1477.500,96.000 1456.500,75.000" fill="#c2d0ff" transform="rotate(45 1477.500 75.000)"/>
<polygon points="1605.000,0.000 1680.000,75.000 1605.000,150.000 1530.000,75.000" fill="none" stroke="#c2d0ff" stroke-width="2"/>
<polygon points="1605.000,45.000 1635.000,75.000 1605.000,105.000 1575.000,75.000" fill="#c2d0ff"/>
<polygon points="1605.000,54.000 1626.000,75.000 1605.000,96.000 1584.000,75.000" fill="#c2d0ff" transform="rotate(45 1605.000 75.000)"/>
<polygon points="1732.500,0.000 1807.500,75.000 1732.500,150.000 1657.500,75.000" fill="none" stroke="#c2d0ff" stroke-width="2"/>
<polygon points="1732.500,45.000 1762.500,75.000 1732.500,105.000 1702.500,75.000" fill="#c2d0ff"/>
<polygon points="1732.500,54.000 1753.500,75.000 1732.500,96.000 1711.500,75.000" fill="#c2d0ff" transform="rotate(45 1732.500 75.000)"/>
<polygon points="1860.000,0.000 1935.000,75.000 1860.000,150.000 1785.000,75.000" fill="none" stroke="#c2d0ff" stroke-width="2"/>
<polygon points="1860.000,45.000 1890.000,75.000 1860.000,105.000 1830.000,75.000" fill="#c2d0ff"/>
<polygon points="1860.000,54.000 1881.000,75.000 1860.000,96.000 1839.000,75.000" fill="#c2d0ff" transform="rotate(45 1860.000 75.000)"/>
<polygon points="138.750,127.500 213.750,202.500 138.750,277.500 63.750,202.500" fill="none" stroke="#c2d0ff" stroke-width="2"/>
<polygon points="138.750,172.500 168.750,202.500 138.750,232.500 108.750,202.500" fill="#c2d0ff"/>
<polygon points="138.750,181.500 159.750,202.500 138.750,223.500 117.750,202.500" fill="#c2d0ff" transform="rotate(45 138.750 202.500)"/>
<polygon points="266.250,127.500 341.250,202.500 266.250,277.500 191.250,202.500" fill="none" stroke="#c2d0ff" stroke-width="2"/>
<polygon points="266.250,172.500 296.250,202.500 266.250,232.500 236.250,202.500" fill="#c2d0ff"/>
<polygon points="266.250,181.500 287.250,202.500 266.250,223.500 245.250,202.500" fill="#c2d0ff" transform="rotate(45 266.250 202.500)"/>
<polygon points="393.750,127.500 468.750,202.500 393.750,277.500 318.750,202.500" fill="none" stroke="#c2d0ff" stroke-width="2"/>
<polygon points="393.750,172.500 423.750,202.500 393.750,232.500 363.750,202.500" fill="#c2d0ff"/>
<polygon points="393.750,181.500 414.750,202.500 393.750,223.500 372.750,202.500" fill="#c2d0ff" transform="rotate(45 393.750 202.500)"/>
<polygon points="521.250,127.500 596.250,202.500 521.250,277.500 446.250,202.500" fill="none" stroke="#c2d0ff" stroke-width="2"/>
<polygon points="521.250,172.500 551.250,202.500 521.250,232.500 491.250,202.500" fill="#c2d0ff"/>
<polygon points="521.250,181.500 542.250,202.500 521.250,223.500 500.250,202.500" fill="#c2d0ff" transform="rotate(45 521.250 202.500)"/>
<polygon points="648.750,127.500 723.750,202.500 648.750,277.500 573.750,202.500" fill="none" stroke="#c2d0ff" stroke-width="2"/>
<polygon points="648.750,172.500 678.750,202.500 648.750,232.500 618.750,202.500" fill="#c2d0ff"/>
<polygon points="648.750,181.500 669.750,202.500 648.750,223.500 627.750,202.500" fill="#c2d0ff" transform="rotate(45 648.750 202.500)"/>
<polygon points="776.250,127.500 851.250,202.500 776.250,277.500 701.250,202.500" fill="none" stroke="#c2d0ff" stroke-width="2"/>
<polygon points="776.250,172.500 806.250,202.500 776.250,232.500 746.250,202.500" fill="#c2d0ff"/>
<polygon points="776.250,181.500 797.250,202.500 776.250,223.500 755.250,202.500" fill="#c2d0ff" transform="rotate(45 776.250 202.500)"/>
<polygon points="903.750,127.500 978.750,202.500 903.750,277.500 828.750,202.500" fill="none" stroke="#c2d0ff" stroke-width="2"/>
<polygon points="903.750,172.500 933.750,202.500 903.750,232.500 873.750,202.500" fill="#c2d0ff"/>
<polygon points="903.750,181.500 924.750,202.500 903.750,223.500 882.750,202.500" fill="#c2d0ff" transform="rotate(45 903.750 202.500)"/>
<polygon points="1031.250,127.500 1106.250,202.500 1031.250,277.500 956.250,202.500" fill="none" stroke="#c2d0ff" stroke-width="2"/>
<polygon points="1031.250,172.500 1061.250,202.500 1031.250,232.500 1001.250,202.500" fill="#c2d0ff"/>
<polygon points="1031.250,181.500 1052.250,202.500 1031.250,223.500 1010.250,202.500" fill="#c2d0ff" transform="rotate(45 1031.250 202.500)"/>
<polygon points="1158.750,127.500 1233.750,202.500 1158.750,277.500 1083.750,202.500" fill="none" stroke="#c2d0ff" stroke-width="2"/>
<polygon points="1158.750,172.500 1188.750,202.500 1158.750,232.500 1128.750,202.500" fill="#c2d0ff"/>
<polygon points="1158.750,181.500 1179.750,202.500 1158.750,223.500 1137.750,202.500" fill="#c2d0ff" transform="rotate(45 1158.750 202.500)"/>
<polygon points="1286.250,127.500 1361.250,202.500 1286.250,277.500 1211.250,202.500" fill="none" stroke="#c2d0ff" stroke-width="2"/>
<polygon points="1286.250,172.500 1316.250,202.500 1286.250,232.500 1256.250,202.500" fill="#c2d0ff"/>
<polygon points="1286.250,181.500 1307.250,202.500 1286.250,223.500 1265.250,202.500" fill="#c2d0ff" transform="rotate(45 1286.250 202.500)"/>
<polygon points="1413.750,127.500 1488.750,202.500 1413.750,277.500 1338.750,202.500" fill="none" stroke="#c2d0ff" stroke-width="2"/>
<polygon points="1413.750,172.500 1443.750,202.500 1413.750,232.500 1383.750,202.500" fill="#c2d0ff"/>
<polygon points="1413.750,181.500 1434.750,202.500 1413.750,223.500 1392.750,202.500" fill="#c2d0ff" transform="rotate(45 1413.750 202.500)"/>
<polygon points="1541.250,127.500 1616.250,202.500 1541.250,277.500 1466.250,202.500" fill="none" stroke="#c2d0ff" stroke-width="2"/>
<polygon points="1541.250,172.500 1571.250,202.500 1541.250,232.500 1511.250,202.500" fill="#c2d0ff"/>
<polygon points="1541.250,181.500 1562.250,202.500 1541.250,223.500 1520.250,202.500" fill="#c2d0ff" transform="rotate(45 1541.250 202.500)"/>
<polygon points="1668.750,127.500 1743.750,202.500 1668.750,277.500 1593.750,202.500" fill="none" stroke="#c2d0ff" stroke-width="2"/>
<polygon points="1668.750,172.500 1698.750,202.500 1668.750,232.500 1638.750,202.500" fill="#c2d0ff"/>
<polygon points="1668.750,181.500 1689.750,202.500 1668.750,223.500 1647.750,202.500" fill="#c2d0ff" transform="rotate(45 1668.750 202.500)"/>
<polygon points="1796.250,127.500 1871.250,202.500 1796.250,277.500 1721.250,202.500" fill="none" stroke="#c2d0ff" stroke-width="2"/>
<polygon points="1796.250,172.500 1826.250,202.500 1796.250,232.500 1766.250,202.500" fill="#c2d0ff"/>
<polygon points="1796.250,181.500 1817.250,202.500 1796.250,223.500 1775.250,202.500" fill="#c2d0ff" transform="rotate(45 1796.250 202.500)"/>
<polygon points="1923.750,127.500 1998.750,202.500 1923.750,277.500 1848.750,202.500" fill="none" stroke="#c2d0ff" stroke-width="2"/>
<polygon points="1923.750,172.500 1953.750,202.500 1923.750,232.500 1893.750,202.500" fill="#c2d0ff"/>
<polygon points="1923.750,181.500 1944.750,202.500 1923.750,223.500 1902.750,202.500" fill="#c2d0ff" transform="rotate(45 1923.750 202.500)"/>
<polygon points="75.000,255.000 150.000,330.000 75.000,405.000 0.000,330.000" fill="none" stroke="#c2d0ff" stroke-width="2"/>
<polygon points="75.000,300.000 105.000,330.000 75.000,360.000 45.000,330.000" fill="#c2d0ff"/>
<polygon points="75.000,309.000 96.000,330.000 75.000,351.000 54.000,330.000" fill="#c2d0ff" transform="rotate(45 75.000 330.000)"/>
<polygon points="202.500,255.000 277.500,330.000 202.500,405.000 127.500,330.000" fill="none" stroke="#c2d0ff" stroke-width="2"/>
<polygon points="202.500,300.000 232.500,330.000 202.500,360.000 172.500,330.000" fill="#c2d0ff"/>
<polygon points="202.500,309.000 223.500,330.000 202.500,351.000 181.500,330.000" fill="#c2d0ff" transform="rotate(45 202.500 330.000)"/>
<polygon points="330.000,255.000 405.000,330.000 330.000,405.000 255.000,330.000" fill="none" stroke="#c2d0ff" stroke-width="2"/>
<polygon points="330.000,300.000 360.000,330.000 330.000,360.000 300.000,330.000" fill="#c2d0ff"/>
<polygon points="330.000,309.000 351.000,330.000 330.000,351.000 309.000,330.000" fill="#c2d0ff" transform="rotate(45 330.000 330.000)"/>
<polygon points="457.500,255.000 532.500,330.000 457.500,405.000 382.500,330.000" fill="none" stroke="#c2d0ff" stroke-width="2"/>
<polygon points="457.500,300.000 487.500,330.000 457.500,360.000 427.500,330.000" fill="#c2d0ff"/>
<polygon points="457.500,309.000 478.500,330.000 457.500,351.000 436.500,330.000" fill="#c2d0ff" transform="rotate(45 457.500 330.000)"/>
<polygon points="585.000,255.000 660.000,330.000 585.000,405.000 510.000,330.000" fill="none" stroke="#c2d0ff" stroke-width="2"/>
<polygon points="585.000,300.000 615.000,330.000 585.000,360.000 555.000,330.000" fill="#c2d0ff"/>
<polygon points="585.000,309.000 606.000,330.000 585.000,351.000 564.000,330.000" fill="#c2d0ff" transform="rotate(45 585.000 330.000)"/>
<polygon points="712.500,255.000 787.500,330.000 712.500,405.000 637.500,330.000" fill="none" stroke="#c2d0ff" stroke-width="2"/>
<polygon points="712.500,300.000 742.500,330.000 712.500,360.000 682.500,330.000" fill="#c2d0ff"/>
<polygon points="712.500,309.000 733.500,330.000 712.500,351.000 691.500,330.000" fill="#c2d0ff" transform="rotate(45 712.500 330.000)"/>
<polygon points="840.000,255.000 915.000,330.000 840.000,405.000 765.000,330.000" fill="none" stroke="#c2d0ff" stroke-width="2"/>
<polygon points="840.000,300.000 870.000,330.000 840.000,360.000 810.000,330.000" fill="#c2d0ff"/>
<polygon points="840.000,309.000 861.000,330.000 840.000,351.000 819.000,330.000" fill="#c2d0ff" transform="rotate(45 840.000 330.000)"/>
<polygon points="967.500,255.000 1042.500,330.000 967.500,405.000 892.500,330.000" fill="none" stroke="#c2d0ff" stroke-width="2"/>
<polygon points="967.500,300.000 997.500,330.000 967.500,360.000 937.500,330.000" fill="#c2d0ff"/>
<polygon points="967.500,309.000 988.500,330.000 967.500,351.000 946.500,330.000" fill="#c2d0ff" transform="rotate(45 967.500 330.000)"/>
<polygon points="1095.000,255.000 1170.000,330.000 1095.000,405.000 1020.000,330.000" fill="none" stroke="#c2d0ff" stroke-width="2"/>
<polygon points="1095.000,300.000 1125.000,330.000 1095.000,360.000 1065.000,330.000" fill="#c2d0ff"/>
<polygon points="1095.000,309.000 1116.000,330.000 1095.000,351.000 1074.000,330.000" fill="#c2d0ff" transform="rotate(45 1095.000 330.000)"/>
<polygon points="1222.500,255.000 1297.500,330.000 1222.500,405.000 1147.500,330.000" fill="none" stroke="#c2d0ff" stroke-width="2"/>
<polygon points="1222.500,300.000 1252.500,330.000 1222.500,360.000 1192.500,330.000" fill="#c2d0ff"/>
<polygon points="1222.500,309.000 1243.500,330.000 1222.500,351.000 1201.500,330.000" fill="#c2d0ff" transform="rotate(45 1222.500 330.000)"/>
<polygon points="1350.000,255.000 1425.000,330.000 1350.000,405.000 1275.000,330.000" fill="none" stroke="#c2d0ff" stroke-width="2"/>
<polygon points="1350.000,300.000 1380.000,330.000 1350.000,360.000 1320.000,330.000" fill="#c2d0ff"/>
<polygon points="1350.000,309.000 1371.000,330.000 1350.000,351.000 1329.000,330.000" fill="#c2d0ff" transform="rotate(45 1350.000 330.000)"/>
<polygon points="1477.500,255.000 1552.500,330.000 1477.500,405.000 1402.500,330.000" fill="none" stroke="#c2d0ff" stroke-width="2"/>
<polygon points="1477.500,300.000 1507.500,330.000 1477.500,360.000 1447.500,330.000" fill="#c2d0ff"/>
<polygon points="1477.500,309.000 1498.500,330.000 1477.500,351.000 1456.500,330.000" fill="#c2d0ff" transform="rotate(45 1477.500 330.000)"/>
<polygon points="1605.000,255.000 1680.000,330.000 1605.000,405.000 1530.000,330.000" fill="none" stroke="#c2d0ff" stroke-width="2"/>
<polygon points="1605.000,300.000 1635.000,330.000 1605.000,360.000 1575.000,330.000" fill="#c2d0ff"/>
<polygon points="1605.000,309.000 1626.000,330.000 1605.000,351.000 1584.000,330.000" fill="#c2d0ff" transform="rotate(45 1605.000 330.000)"/>
<polygon points="1732.500,255.000 1807.500,330.000 1732.500,405.000 1657.500,330.000" fill="none" stroke="#c2d0ff" stroke-width="2"/>
<polygon points="1732.500,300.000 1762.500,330.000 1732.500,360.000 1702.500,330.000" fill="#c2d0ff"/>
<polygon points="1732.500,309.000 1753.500,330.000 1732.500,351.000 1711.500,330.000" fill="#c2d0ff" transform="rotate(45 1732.500 330.000)"/>
<polygon points="1860.000,255.000 1935.000,330.000 1860.000,405.000 1785.000,330.000" fill="none" stroke="#c2d0ff" stroke-width="2"/>
<polygon points="1860.000,300.000 1890.000,330.000 1860.000,360.000 1830.000,330.000" fill="#c2d0ff"/>
<polygon points="1860.000,309.000 1881.000,330.000 1860.000,351.000 1839.000,330.000" fill="#c2d0ff" transform="rotate(45 1860.000 330.000)"/>
<polygon points="138.750,382.500 213.750,457.500 138.750,532.500 63.750,457.500" fill="none" stroke="#c2d0ff" stroke-width="2"/>
<polygon points="138.750,427.500 168.750,457.500 138.750,487.500 108.750,457.500" fill="#c2d0ff"/>
<polygon points="138.750,436.500 159.750,457.500 138.750,478.500 117.750,457.500" fill="#c2d0ff" transform="rotate(45 138.750 457.500)"/>
<polygon points="266.250,382.500 341.250,457.500 266.250,532.500 191.250,457.500" fill="none" stroke="#c2d0ff" stroke-width="2"/>
<polygon points="266.250,427.500 296.250,457.500 266.250,487.500 236.250,457.500" fill="#c2d0ff"/>
<polygon points="266.250,436.500 287.250,457.500 266.250,478.500 245.250,457.500" fill="#c2d0ff" transform="rotate(45 266.250 457.500)"/>
<polygon points="393.750,382.500 468.750,457.500 393.750,532.500 318.750,457.500" fill="none" stroke="#c2d0ff" stroke-width="2"/>
<polygon points="393.750,427.500 423.750,457.500 393.750,487.500 363.750,457.500" fill="#c2d0ff"/>
<polygon points="393.750,436.500 414.750,457.500 393.750,478.500 372.750,457.500" fill="#c2d0ff" transform="rotate(45 393.750 457.500)"/>
<polygon points="521.250,382.500 596.250,457.500 521.250,532.500 446.250,457.500" fill="none" stroke="#c2d0ff" stroke-width="2"/>
<polygon points="521.250,427.500 551.250,457.500 521.250,487.500 491.250,457.500" fill="#c2d0ff"/>
<polygon points="521.250,436.500 542.250,457.500 521.250,478.500 500.250,457.500" fill="#c2d0ff" transform="rotate(45 521.250 457.500)"/>
<polygon points="648.750,382.500 723.750,457.500 648.750,532.500 573.750,457.500" fill="none" stroke="#c2d0ff" stroke-width="2"/>
<polygon points="648.750,427.500 678.750,457.500 648.750,487.500 618.750,457.500" fill="#c2d0ff"/>
<polygon points="648.750,436.500 669.750,457.500 648.750,478.500 627.750,457.500" fill="#c2d0ff" transform="rotate(45 648.750 457.500)"/>
<polygon points="776.250,382.500 851.250,457.500 776.250,532.500 701.250,457.500" fill="none" stroke="#c2d0ff" stroke-width="2"/>
<polygon points="776.250,427.500 806.250,457.500 776.250,487.500 746.250,457.500" fill="#c2d0ff"/>
<polygon points="776.250,436.500 797.250,457.500 776.250,478.500 755.250,457.500" fill="#c2d0ff" transform="rotate(45 776.250 457.500)"/>
<polygon points="903.750,382.500 978.750,457.500 903.750,532.500 828.750,457.500" fill="none" stroke="#c2d0ff" stroke-width="2"/>
<polygon points="903.750,427.500 933.750,457.500 903.750,487.500 873.750,457.500" fill="#c2d0ff"/>
<polygon points="903.750,436.500 924.750,457.500 903.750,478.500 882.750,457.500" fill="#c2d0ff" transform="rotate(45 903.750 457.500)"/>
<polygon points="1031.250,382.500 1106.250,457.500 1031.250,532.500 956.250,457.500" fill="none" stroke="#c2d0ff" stroke-width="2"/>
<polygon points="1031.250,427.500 1061.250,457.500 1031.250,487.500 1001.250,457.500" fill="#c2d0ff"/>
<polygon points="1031.250,436.500 1052.250,457.500 1031.250,478.500 1010.250,457.500" fill="#c2d0ff" transform="rotate(45 1031.250 457.500)"/>
<polygon points="1158.750,382.500 1233.750,457.500 1158.750,532.500 1083.750,457.500" fill="none" stroke="#c2d0ff" stroke-width="2"/>
<polygon points="1158.750,427.500 1188.750,457.500 1158.750,487.500 1128.750,457.500" fill="#c2d0ff"/>
<polygon points="1158.750,436.500 1179.750,457.500 1158.750,478.500 1137.750,457.500" fill="#c2d0ff" transform="rotate(45 1158.750 457.500)"/>
<polygon points="1286.250,382.500 1361.250,457.500 1286.250,532.500 1211.250,457.500" fill="none" stroke="#c2d0ff" stroke-width="2"/>
<polygon points="1286.250,427.500 1316.250,457.500 1286.250,487.500 1256.250,457.500" fill="#c2d0ff"/>
<polygon points="1286.250,436.500 1307.250,457.500 1286.250,478.500 1265.250,457.500" fill="#c2d0ff" transform="rotate(45 1286.250 457.500)"/>
<polygon points="1413.750,382.500 1488.750,457.500 1413.750,532.500 1338.750,457.500" fill="none" stroke="#c2d0ff" stroke-width="2"/>
<polygon points="1413.750,427.500 1443.750,457.500 1413.750,487.500 1383.750,457.500" fill="#c2d0ff"/>
<polygon points="1413.750,436.500 1434.750,457.500 1413.750,478.500 1392.750,457.500" fill="#c2d0ff" transform="rotate(45 1413.750 457.500)"/>
<polygon points="1541.250,382.500 1616.250,457.500 1541.250,532.500 1466.250,457.500" fill="none" stroke="#c2d0ff" stroke-width="2"/>
<polygon points="1541.250,427.500 1571.250,457.500 1541.250,487.500 1511.250,457.500" fill="#c2d0ff"/>
<polygon points="1541.250,436.500 1562.250,457.500 1541.250,478.500 1520.250,457.500" fill="#c2d0ff" transform="rotate(45 1541.250 457.500)"/>
<polygon points="1668.750,382.500 1743.750,457.500 1668.750,532.500 1593.750,457.500" fill="none" stroke="#c2d0ff" stroke-width="2"/>
<polygon points="1668.750,427.500 1698.750,457.500 1668.750,487.500 1638.750,457.500" fill="#c2d0ff"/>
<polygon points="1668.750,436.500 1689.750,457.500 1668.750,478.500 1647.750,457.500" fill="#c2d0ff" transform="rotate(45 1668.750 457.500)"/>
<polygon points="1796.250,382.500 1871.250,457.500 1796.250,532.500 1721.250,457.500" fill="none" stroke="#c2d0ff" stroke-width="2"/>
<polygon points="1796.250,427.500 1826.250,457.500 1796.250,487.500 1766.250,457.500" fill="#c2d0ff"/>
<polygon points="1796.250,436.500 1817.250,457.500 1796.250,478.500 1775.250,457.500" fill="#c2d0ff" transform="rotate(45 1796.250 457.500)"/>
<polygon points="1923.750,382.500 1998.750,457.500 1923.750,532.500 1848.750,457.500" fill="none" stroke="#c2d0ff" stroke-width="2"/>
<polygon points="1923.750,427.500 1953.750,457.500 1923.750,487.500 1893.750,457.500" fill="#c2d0ff"/>
<polygon points="1923.750,436.500 1944.750,457.500 1923.750,478.500 1902.750,457.500" fill="#c2d0ff" transform="rotate(45 1923.750 457.500)"/>
<polygon points="75.000,510.000 150.000,585.000 75.000,660.000 0.000,585.000" fill="none" stroke="#c2d0ff" stroke-width="2"/>
<polygon points="75.000,555.000 105.000,585.000 75.000,615.000 45.000,585.000" fill="#c2d0ff"/>
<polygon points="75.000,564.000 96.000,585.000 75.000,606.000 54.000,585.000" fill="#c2d0ff" transform="rotate(45 75.000 585.000)"/>
<polygon points="202.500,510.000 277.500,585.000 202.500,660.000 127.500,585.000" fill="none" stroke="#c2d0ff" stroke-width="2"/>
<polygon points="202.500,555.000 232.500,585.000 202.500,615.000 172.500,585.000" fill="#c2d0ff"/>
<polygon points="202.500,564.000 223.500,585.000 202.500,606.000 181.500,585.000" fill="#c2d0ff" transform="rotate(45 202.500 585.000)"/>
<polygon points="330.000,510.000 405.000,585.000 330.000,660.000 255.000,585.000" fill="none" stroke="#c2d0ff" stroke-width="2"/>
<polygon points="330.000,555.000 360.000,585.000 330.000,615.000 300.000,585.000" fill="#c2d0ff"/>
<polygon points="330.000,564.000 351.000,585.000 330.000,606.000 309.000,585.000" fill="#c2d0ff" transform="rotate(45 330.000 585.000)"/>
<polygon points="457.500,510.000 532.500,585.000 457.500,660.000 382.500,585.000" fill="none" stroke="#c2d0ff" stroke-width="2"/>
<polygon points="457.500,555.000 487.500,585.000 457.500,615.000 427.500,585.000" fill="#c2d0ff"/>
<polygon points="457.500,564.000 478.500,585.000 457.500,606.000 436.500,585.000" fill="#c2d0ff" transform="rotate(45 457.500 585.000)"/>
<polygon points="585.000,510.000 660.000,585.000 585.000,660.000 510.000,585.000" fill="none" stroke="#c2d0ff" stroke-width="2"/>
<polygon points="585.000,555.000 615.000,585.000 585.000,615.000 555.000,585.000" fill="#c2d0ff"/>
<polygon points="585.000,564.000 606.000,585.000 585.000,606.000 564.000,585.000" fill="#c2d0ff" transform="rotate(45 585.000 585.000)"/>
<polygon points="712.500,510.000 787.500,585.000 712.500,660.000 637.500,585.000" fill="none" stroke="#c2d0ff" stroke-width="2"/>
<polygon points="712.500,555.000 742.500,585.000 712.500,615.000 682.500,585.000" fill="#c2d0ff"/>
<polygon points="712.500,564.000 733.500,585.000 712.500,606.000 691.500,585.000" fill="#c2d0ff" transform="rotate(45 712.500 585.000)"/>
<polygon points="840.000,510.000 915.000,585.000 840.000,660.000 765.000,585.000" fill="none" stroke="#c2d0ff" stroke-width="2"/>
<polygon points="840.000,555.000 870.000,585.000 840.000,615.000 810.000,585.000" fill="#c2d0ff"/>
<polygon points="840.000,564.000 861.000,585.000 840.000,606.000 819.000,585.000" fill="#c2d0ff" transform="rotate(45 840.000 585.000)"/>
<polygon points="967.500,510.000 1042.500,585.000 967.500,660.000 892.500,585.000" fill="none" stroke="#c2d0ff" stroke-width="2"/>
<polygon points="967.500,555.000 997.500,585.000 967.500,615.000 937.500,585.000" fill="#c2d0ff"/>
<polygon points="967.500,564.000 988.500,585.000 967.500,606.000 946.500,585.000" fill="#c2d0ff" transform="rotate(45 967.500 585.000)"/>
<polygon points="1095.000,510.000 1170.000,585.000 1095.000,660.000 1020.000,585.000" fill="none" stroke="#c2d0ff" stroke-width="2"/>
<polygon points="1095.000,555.000 1125.000,585.000 1095.000,615.000 1065.000,585.000" fill="#c2d0ff"/>
<polygon points="1095.000,564.000 1116.000,585.000 1095.000,606.000 1074.000,585.000" fill="#c2d0ff" transform="rotate(45 1095.000 585.000)"/>
<polygon points="1222.500,510.000 1297.500,585.000 1222.500,660.000 1147.500,585.000" fill="none" stroke="#c2d0ff" stroke-width="2"/>
<polygon points="1222.500,555.000 1252.500,585.000 1222.500,615.000 1192.500,585.000" fill="#c2d0ff"/>
<polygon points="1222.500,564.000 1243.500,585.000 1222.500,606.000 1201.500,585.000" fill="#c2d0ff" transform="rotate(45 1222.500 585.000)"/>
<polygon points="1350.000,510.000 1425.000,585.000 1350.000,660.000 1275.000,585.000" fill="none" stroke="#c2d0ff" stroke-width="2"/>
<polygon points="1350.000,555.000 1380.000,585.000 1350.000,615.000 1320.000,585.000" fill="#c2d0ff"/>
<polygon points="1350.000,564.000 1371.000,585.000 1350.000,606.000 1329.000,585.000" fill="#c2d0ff" transform="rotate(45 1350.000 585.000)"/>
<polygon points="1477.500,510.000 1552.500,585.000 1477.500,660.000 1402.500,585.000" fill="none" stroke="#c2d0ff" stroke-width="2"/>
<polygon points="1477.500,555.000 1507.500,585.000 1477.500,615.000 1447.500,585.000" fill="#c2d0ff"/>
<polygon points="1477.500,564.000 1498.500,585.000 1477.500,606.000 1456.500,585.000" fill="#c2d0ff" transform="rotate(45 1477.500 585.000)"/>
<polygon points="1605.000,510.000 1680.000,585.000 1605.000,660.000 1530.000,585.000" fill="none" stroke="#c2d0ff" stroke-width="2"/>
<polygon points="1605.000,555.000 1635.000,585.000 1605.000,615.000 1575.000,585.000" fill="#c2d0ff"/>
<polygon points="1605.000,564.000 1626.000,585.000 1605.000,606.000 1584.000,585.000" fill="#c2d0ff" transform="rotate(45 1605.000 585.000)"/>
<polygon points="1732.500,510.000 1807.500,585.000 1732.500,660.000 1657.500,585.000" fill="none" stroke="#c2d0ff" stroke-width="2"/>
<polygon points="1732.500,555.000 1762.500,585.000 1732.500,615.000 1702.500,585.000" fill="#c2d0ff"/>
<polygon points="1732.500,564.000 1753.500,585.000 1732.500,606.000 1711.500,585.000" fill="#c2d0ff" transform="rotate(45 1732.500 585.000)"/>
<polygon points="1860.000,510.000 1935.000,585.000 1860.000,660.000 1785.000,585.000" fill="none" stroke="#c2d0ff" stroke-width="2"/>
<polygon points="1860.000,555.000 1890.000,585.000 1860.000,615.000 1830.000,585.000" fill="#c2d0ff"/>
<polygon points="1860.000,564.000 1881.000,585.000 1860.000,606.000 1839.000,585.000" fill="#c2d0ff" transform="rotate(45 1860.000 585.000)"/>
<polygon points="138.750,637.500 213.750,712.500 138.750,787.500 63.750,712.500" fill="none" stroke="#c2d0ff" stroke-width="2"/>
<polygon points="138.750,682.500 168.750,712.500 138.750,742.500 108.750,712.500" fill="#c2d0ff"/>
<polygon points="138.750,691.500 159.750,712.500 138.750,733.500 117.750,712.500" fill="#c2d0ff" transform="rotate(45 138.750 712.500)"/>
<polygon points="266.250,637.500 341.250,712.500 266.250,787.500 191.250,712.500" fill="none" stroke="#c2d0ff" stroke-width="2"/>
<polygon points="266.250,682.500 296.250,712.500 266.250,742.500 236.250,712.500" fill="#c2d0ff"/>
<polygon points="266.250,691.500 287.250,712.500 266.250,733.500 245.250,712.500" fill="#c2d0ff" transform="rotate(45 266.250 712.500)"/>
<polygon points="393.750,637.500 468.750,712.500 393.750,787.500 318.750,712.500" fill="none" stroke="#c2d0ff" stroke-width="2"/>
<polygon points="393.750,682.500 423.750,712.500 393.750,742.500 363.750,712.500" fill="#c2d0ff"/>
<polygon points="393.750,691.500 414.750,712.500 393.750,733.500 372.750,712.500" fill="#c2d0ff" transform="rotate(45 393.750 712.500)"/>
<polygon points="521.250,637.500 596.250,712.500 521.250,787.500 446.250,712.500" fill="none" stroke="#c2d0ff" stroke-width="2"/>
<polygon points="521.250,682.500 551.250,712.500 521.250,742.500 491.250,712.500" fill="#c2d0ff"/>
<polygon points="521.250,691.500 542.250,712.500 521.250,733.500 500.250,712.500" fill="#c2d0ff" transform="rotate(45 521.250 712.500)"/>
<polygon points="648.750,637.500 723.750,712.500 648.750,787.500 573.750,712.500" fill="none" stroke="#c2d0ff" stroke-width="2"/>
<polygon points="648.750,682.500 678.750,712.500 648.750,742.500 618.750,712.500" fill="#c2d0ff"/>
<polygon points="648.750,691.500 669.750,712.500 648.750,733.500 627.750,712.500" fill="#c2d0ff" transform="rotate(45 648.750 712.500)"/>
<polygon points="776.250,637.500 851.250,712.500 776.250,787.500 701.250,712.500" fill="none" stroke="#c2d0ff" stroke-width="2"/>
<polygon points="776.250,682.500 806.250,712.500 776.250,742.500 746.250,712.500" fill="#c2d0ff"/>
<polygon points="776.250,691.500 797.250,712.500 776.250,733.500 755.250,712.500" fill="#c2d0ff" transform="rotate(45 776.250 712.500)"/>
<polygon points="903.750,637.500 978.750,712.500 903.750,787.500 828.750,712.500" fill="none" stroke="#c2d0ff" stroke-width="2"/>
<polygon points="903.750,682.500 933.750,712.500 903.750,742.500 873.750,712.500" fill="#c2d0ff"/>
<polygon points="903.750,691.500 924.750,712.500 903.750,733.500 882.750,712.500" fill="#c2d0ff" transform="rotate(45 903.750 712.500)"/>
<polygon points="1031.250,637.500 1106.250,712.500 1031.250,787.500 956.250,712.500" fill="none" stroke="#c2d0ff" stroke-width="2"/>
<polygon points="1031.250,682.500 1061.250,712.500 1031.250,742.500 1001.250,712.500" fill="#c2d0ff"/>
<polygon points="1031.250,691.500 1052.250,712.500 1031.250,733.500 1010.250,712.500" fill="#c2d0ff" transform="rotate(45 1031.250 712.500)"/>
<polygon points="1158.750,637.500 1233.750,712.500 1158.750,787.500 1083.750,712.500" fill="none" stroke="#c2d0ff" stroke-width="2"/>
<polygon points="1158.750,682.500 1188.750,712.500 1158.750,742.500 1128.750,712.500" fill="#c2d0ff"/>
<polygon points="1158.750,691.500 1179.750,712.500 1158.750,733.500 1137.750,712.500" fill="#c2d0ff" transform="rotate(45 1158.750 712.500)"/>
<polygon points="1286.250,637.500 1361.250,712.500 1286.250,787.500 1211.250,712.500" fill="none" stroke="#c2d0ff" stroke-width="2"/>
<polygon points="1286.250,682.500 1316.250,712.500 1286.250,742.500 1256.250,712.500" fill="#c2d0ff"/>
<polygon points="1286.250,691.500 1307.250,712.500 1286.250,733.500 1265.250,712.500" fill="#c2d0ff" transform="rotate(45 1286.250 712.500)"/>
<polygon points="1413.750,637.500 1488.750,712.500 1413.750,787.500 1338.750,712.500" fill="none" stroke="#c2d0ff" stroke-width="2"/>
<polygon points="1413.750,682.500 1443.750,712.500 1413.750,742.500 1383.750,712.500" fill="#c2d0ff"/>
<polygon points="1413.750,691.500 1434.750,712.500 1413.750,733.500 1392.750,712.500" fill="#c2d0ff" transform="rotate(45 1413.750 712.500)"/>
<polygon points="1541.250,637.500 1616.250,712.500 1541.250,787.500 1466.250,712.500" fill="none" stroke="#c2d0ff" stroke-width="2"/>
<polygon points="1541.250,682.500 1571.250,712.500 1541.250,742.500 1511.250,712.500" fill="#c2d0ff"/>
<polygon points="1541.250,691.500 1562.250,712.500 1541.250,733.500 1520.250,712.500" fill="#c2d0ff" transform="rotate(45 1541.250 712.500)"/>
<polygon points="1668.750,637.500 1743.750,712.500 1668.750,787.500 1593.750,712.500" fill="none" stroke="#c2d0ff" stroke-width="2"/>
<polygon points="1668.750,682.500 1698.750,712.500 1668.750,742.500 1638.750,712.500" fill="#c2d0ff"/>
<polygon points="1668.750,691.500 1689.750,712.500 1668.750,733.500 1647.750,712.500" fill="#c2d0ff" transform="rotate(45 1668.750 712.500)"/>
<polygon points="1796.250,637.500 1871.250,712.500 1796.250,787.500 1721.250,712.500" fill="none" stroke="#c2d0ff" stroke-width="2"/>
<polygon points="1796.250,682.500 1826.250,712.500 1796.250,742.500 1766.250,712.500" fill="#c2d0ff"/>
<polygon points="1796.250,691.500 1817.250,712.500 1796.250,733.500 1775.250,712.500" fill="#c2d0ff" transform="rotate(45 1796.250 712.500)"/>
<polygon points="1923.750,637.500 1998.750,712.500 1923.750,787.500 1848.750,712.500" fill="none" stroke="#c2d0ff" stroke-width="2"/>
<polygon points="1923.750,682.500 1953.750,712.500 1923.750,742.500 1893.750,712.500" fill="#c2d0ff"/>
<polygon points="1923.750,691.500 1944.750,712.500 1923.750,733.500 1902.750,712.500" fill="#c2d0ff" transform="rotate(45 1923.750 712.500)"/>
<polygon points="75.000,765.000 150.000,840.000 75.000,915.000 0.000,840.000" fill="none" stroke="#c2d0ff" stroke-width="2"/>
<polygon points="75.000,810.000 105.000,840.000 75.000,870.000 45.000,840.000" fill="#c2d0ff"/>
<polygon points="75.000,819.000 96.000,840.000 75.000,861.000 54.000,840.000" fill="#c2d0ff" transform="rotate(45 75.000 840.000)"/>
<polygon points="202.500,765.000 277.500,840.000 202.500,915.000 127.500,840.000" fill="none" stroke="#c2d0ff" stroke-width="2"/>
<polygon points="202.500,810.000 232.500,840.000 202.500,870.000 172.500,840.000" fill="#c2d0ff"/>
<polygon points="202.500,819.000 223.500,840.000 202.500,861.000 181.500,840.000" fill="#c2d0ff" transform="rotate(45 202.500 840.000)"/>
<polygon points="330.000,765.000 405.000,840.000 330.000,915.000 255.000,840.000" fill="none" stroke="#c2d0ff" stroke-width="2"/>
<polygon points="330.000,810.000 360.000,840.000 330.000,870.000 300.000,840.000" fill="#c2d0ff"/>
<polygon points="330.000,819.000 351.000,840.000 330.000,861.000 309.000,840.000" fill="#c2d0ff" transform="rotate(45 330.000 840.000)"/>
<polygon points="457.500,765.000 532.500,840.000 457.500,915.000 382.500,840.000" fill="none" stroke="#c2d0ff" stroke-width="2"/>
<polygon points="457.500,810.000 487.500,840.000 457.500,870.000 427.500,840.000" fill="#c2d0ff"/>
<polygon points="457.500,819.000 478.500,840.000 457.500,861.000 436.500,840.000" fill="#c2d0ff" transform="rotate(45 457.500 840.000)"/>
<polygon points="585.000,765.000 660.000,840.000 585.000,915.000 510.000,840.000" fill="none" stroke="#c2d0ff" stroke-width="2"/>
<polygon points="585.000,810.000 615.000,840.000 585.000,870.000 555.000,840.000" fill="#c2d0ff"/>
<polygon points="585.000,819.000 606.000,840.000 585.000,861.000 564.000,840.000" fill="#c2d0ff" transform="rotate(45 585.000 840.000)"/>
<polygon points="712.500,765.000 787.500,840.000 712.500,915.000 637.500,840.000" fill="none" stroke="#c2d0ff" stroke-width="2"/>
<polygon points="712.500,810.000 742.500,840.000 712.500,870.000 682.500,840.000" fill="#c2d0ff"/>
<polygon points="712.500,819.000 733.500,840.000 712.500,861.000 691.500,840.000" fill="#c2d0ff" transform="rotate(45 712.500 840.000)"/>
<polygon points="840.000,765.000 915.000,840.000 840.000,915.000 765.000,840.000" fill="none" stroke="#c2d0ff" stroke-width="2"/>
<polygon points="840.000,810.000 870.000,840.000 840.000,870.000 810.000,840.000" fill="#c2d0ff"/>
<polygon points="840.000,819.000 861.000,840.000 840.000,861.000 819.000,840.000" fill="#c2d0ff" transform="rotate(45 840.000 840.000)"/>
<polygon points="967.500,765.000 1042.500,840.000 967.500,915.000 892.500,840.000" fill="none" stroke="#c2d0ff" stroke-width="2"/>
<polygon points="967.500,810.000 997.500,840.000 967.500,870.000 937.500,840.000" fill="#c2d0ff"/>
<polygon points="967.500,819.000 988.500,840.000 967.500,861.000 946.500,840.000" fill="#c2d0ff" transform="rotate(45 967.500 840.000)"/>
<polygon points="1095.000,765.000 1170.000,840.000 1095.000,915.000 1020.000,840.000" fill="none" stroke="#c2d0ff" stroke-width="2"/>
<polygon points="1095.000,810.000 1125.000,840.000 1095.000,870.000 1065.000,840.000" fill="#c2d0ff"/>
<polygon points="1095.000,819.000 1116.000,840.000 1095.000,861.000 1074.000,840.000" fill="#c2d0ff" transform="rotate(45 1095.000 840.000)"/>
<polygon points="1222.500,765.000 1297.500,840.000 1222.500,915.000 1147.500,840.000" fill="none" stroke="#c2d0ff" stroke-width="2"/>
<polygon points="1222.500,810.000 1252.500,840.000 1222.500,870.000 1192.500,840.000" fill="#c2d0ff"/>
<polygon points="1222.500,819.000 1243.500,840.000 1222.500,861.000 1201.500,840.000" fill="#c2d0ff" transform="rotate(45 1222.500 840.000)"/>
<polygon points="1350.000,765.000 1425.000,840.000 1350.000,915.000 1275.000,840.000" fill="none" stroke="#c2d0ff" stroke-width="2"/>
<polygon points="1350.000,810.000 1380.000,840.000 1350.000,870.000 1320.000,840.000" fill="#c2d0ff"/>
<polygon points="1350.000,819.000 1371.000,840.000 1350.000,861.000 1329.000,840.000" fill="#c2d0ff" transform="rotate(45 1350.000 840.000)"/>
<polygon points="1477.500,765.000 1552.500,840.000 1477.500,915.000 1402.500,840.000" fill="none" stroke="#c2d0ff" stroke-width="2"/>
<polygon points="1477.500,810.000 1507.500,840.000 1477.500,870.000 1447.500,840.000" fill="#c2d0ff"/>
<polygon points="1477.500,819.000 1498.500,840.000 1477.500,861.000 1456.500,840.000" fill="#c2d0ff" transform="rotate(45 1477.500 840.000)"/>
<polygon points="1605.000,765.000 1680.000,840.000 1605.000,915.000 1530.000,840.000" fill="none" stroke="#c2d0ff" stroke-width="2"/>
<polygon points="1605.000,810.000 1635.000,840.000 1605.000,870.000 1575.000,840.000" fill="#c2d0ff"/>
<polygon points="1605.000,819.000 1626.000,840.000 1605.000,861.000 1584.000,840.000" fill="#c2d0ff" transform="rotate(45 1605.000 840.000)"/>
<polygon points="1732.500,765.000 1807.500,840.000 1732.500,915.000 1657.500,840.000" fill="none" stroke="#c2d0ff" stroke-width="2"/>
<polygon points="1732.500,810.000 1762.500,840.000 1732.500,870.000 1702.500,840.000" fill="#c2d0ff"/>
<polygon points="1732.500,819.000 1753.500,840.000 1732.500,861.000 1711.500,840.000" fill="#c2d0ff" transform="rotate(45 1732.500 840.000)"/>
<polygon points="1860.000,765.000 1935.000,840.000 1860.000,915.000 1785.000,840.000" fill="none" stroke="#c2d0ff" stroke-width="2"/>
<polygon points="1860.000,810.000 1890.000,840.000 1860.000,870.000 1830.000,840.000" fill="#c2d0ff"/>
<polygon points="1860.000,819.000 1881.000,840.000 1860.000,861.000 1839.000,840.000" fill="#c2d0ff" transform="rotate(45 1860.000 840.000)"/>
<polygon points="138.750,892.500 213.750,967.500 138.750,1042.500 63.750,967.500" fill="none" stroke="#c2d0ff" stroke-width="2"/>
<polygon points="138.750,937.500 168.750,967.500 138.750,997.500 108.750,967.500" fill="#c2d0ff"/>
<polygon points="138.750,946.500 159.750,967.500 138.750,988.500 117.750,967.500" fill="#c2d0ff" transform="rotate(45 138.750 967.500)"/>
<polygon points="266.250,892.500 341.250,967.500 266.250,1042.500 191.250,967.500" fill="none" stroke="#c2d0ff" stroke-width="2"/>
<polygon points="266.250,937.500 296.250,967.500 266.250,997.500 236.250,967.500" fill="#c2d0ff"/>
<polygon points="266.250,946.500 287.250,967.500 266.250,988.500 245.250,967.500" fill="#c2d0ff" transform="rotate(45 266.250 967.500)"/>
<polygon points="393.750,892.500 468.750,967.500 393.750,1042.500 318.750,967.500" fill="none" stroke="#c2d0ff" stroke-width="2"/>
<polygon points="393.750,937.500 423.750,967.500 393.750,997.500 363.750,967.500" fill="#c2d0ff"/>
<polygon points="393.750,946.500 414.750,967.500 393.750,988.500 372.750,967.500" fill="#c2d0ff" transform="rotate(45 393.750 967.500)"/>
<polygon points="521.250,892.500 596.250,967.500 521.250,1042.500 446.250,967.500" fill="none" stroke="#c2d0ff" stroke-width="2"/>
<polygon points="521.250,937.500 551.250,967.500 521.250,997.500 491.250,967.500" fill="#c2d0ff"/>
<polygon points="521.250,946.500 542.250,967.500 521.250,988.500 500.250,967.500" fill="#c2d0ff" transform="rotate(45 521.250 967.500)"/>
<polygon points="648.750,892.500 723.750,967.500 648.750,1042.500 573.750,967.500" fill="none" stroke="#c2d0ff" stroke-width="2"/>
<polygon points="648.750,937.500 678.750,967.500 648.750,997.500 618.750,967.500" fill="#c2d0ff"/>
<polygon points="648.750,946.500 669.750,967.500 648.750,988.500 627.750,967.500" fill="#c2d0ff" transform="rotate(45 648.750 967.500)"/>
<polygon points="776.250,892.500 851.250,967.500 776.250,1042.500 701.250,967.500" fill="none" stroke="#c2d0ff" stroke-width="2"/>
<polygon points="776.250,937.500 806.250,967.500 776.250,997.500 746.250,967.500" fill="#c2d0ff"/>
<polygon points="776.250,946.500 797.250,967.500 776.250,988.500 755.250,967.500" fill="#c2d0ff" transform="rotate(45 776.250 967.500)"/>
<polygon points="903.750,892.500 978.750,967.500 903.750,1042.500 828.750,967.500" fill="none" stroke="#c2d0ff" stroke-width="2"/>
<polygon points="903.750,937.500 933.750,967.500 903.750,997.500 873.750,967.500" fill="#c2d0ff"/>
<polygon points="903.750,946.500 924.750,967.500 903.750,988.500 882.750,967.500" fill="#c2d0ff" transform="rotate(45 903.750 967.500)"/>
<polygon points="1031.250,892.500 1106.250,967.500 1031.250,1042.500 956.250,967.500" fill="none" stroke="#c2d0ff" stroke-width="2"/>
<polygon points="1031.250,937.500 1061.250,967.500 1031.250,997.500 1001.250,967.500" fill="#c2d0ff"/>
<polygon points="1031.250,946.500 1052.250,967.500 1031.250,988.500 1010.250,967.500" fill="#c2d0ff" transform="rotate(45 1031.250 967.500)"/>
<polygon points="1158.750,892.500 1233.750,967.500 1158.750,1042.500 1083.750,967.500" fill="none" stroke="#c2d0ff" stroke-width="2"/>
<polygon points="1158.750,937.500 1188.750,967.500 1158.750,997.500 1128.750,967.500" fill="#c2d0ff"/>
<polygon points="1158.750,946.500 1179.750,967.500 1158.750,988.500 1137.750,967.500" fill="#c2d0ff" transform="rotate(45 1158.750 967.500)"/>
<polygon points="1286.250,892.500 1361.250,967.500 1286.250,1042.500 1211.250,967.500" fill="none" stroke="#c2d0ff" stroke-width="2"/>
<polygon points="1286.250,937.500 1316.250,967.500 1286.250,997.500 1256.250,967.500" fill="#c2d0ff"/>
<polygon points="1286.250,946.500 1307.250,967.500 1286.250,988.500 1265.250,967.500" fill="#c2d0ff" transform="rotate(45 1286.250 967.500)"/>
<polygon points="1413.750,892.500 1488.750,967.500 1413.750,1042.500 1338.750,967.500" fill="none" stroke="#c2d0ff" stroke-width="2"/>
<polygon points="1413.750,937.500 1443.750,967.500 1413.750,997.500 1383.750,967.500" fill="#c2d0ff"/>
<polygon points="1413.750,946.500 1434.750,967.500 1413.750,988.500 1392.750,967.500" fill="#c2d0ff" transform="rotate(45 1413.750 967.500)"/>
<polygon points="1541.250,892.500 1616.250,967.500 1541.250,1042.500 1466.250,967.500" fill="none" stroke="#c2d0ff" stroke-width="2"/>
<polygon points="1541.250,937.500 1571.250,967.500 1541.250,997.500 1511.250,967.500" fill="#c2d0ff"/>
<polygon points="1541.250,946.500 1562.250,967.500 1541.250,988.500 1520.250,967.500" fill="#c2d0ff" transform="rotate(45 1541.250 967.500)"/>
<polygon points="1668.750,892.500 1743.750,967.500 1668.750,1042.500 1593.750,967.500" fill="none" stroke="#c2d0ff" stroke-width="2"/>
<polygon points="1668.750,937.500 1698.750,967.500 1668.750,997.500 1638.750,967.500" fill="#c2d0ff"/>
<polygon points="1668.750,946.500 1689.750,967.500 1668.750,988.500 1647.750,967.500" fill="#c2d0ff" transform="rotate(45 1668.750 967.500)"/>
<polygon points="1796.250,892.500 1871.250,967.500 1796.250,1042.500 1721.250,967.500" fill="none" stroke="#c2d0ff" stroke-width="2"/>
<polygon points="1796.250,937.500 1826.250,967.500 1796.250,997.500 1766.250,967.500" fill="#c2d0ff"/>
<polygon points="1796.250,946.500 1817.250,967.500 1796.250,988.500 1775.250,967.500" fill="#c2d0ff" transform="rotate(45 1796.250 967.500)"/>
<polygon points="1923.750,892.500 1998.750,967.500 1923.750,1042.500 1848.750,967.500" fill="none" stroke="#c2d0ff" stroke-width="2"/>
<polygon points="1923.750,937.500 1953.750,967.500 1923.750,997.500 1893.750,967.500" fill="#c2d0ff"/>
<polygon points="1923.750,946.500 1944.750,967.500 1923.750,988.500 1902.750,967.500" fill="#c2d0ff" transform="rotate(45 1923.750 967.500)"/>
<polygon points="75.000,1020.000 150.000,1095.000 75.000,1170.000 0.000,1095.000" fill="none" stroke="#c2d0ff" stroke-width="2"/>
<polygon points="75.000,1065.000 105.000,1095.000 75.000,1125.000 45.000,1095.000" fill="#c2d0ff"/>
<polygon points="75.000,1074.000 96.000,1095.000 75.000,1116.000 54.000,1095.000" fill="#c2d0ff" transform="rotate(45 75.000 1095.000)"/>
<polygon points="202.500,1020.000 277.500,1095.000 202.500,1170.000 127.500,1095.000" fill="none" stroke="#c2d0ff" stroke-width="2"/>
<polygon points="202.500,1065.000 232.500,1095.000 202.500,1125.000 172.500,1095.000" fill="#c2d0ff"/>
<polygon points="202.500,1074.000 223.500,1095.000 202.500,1116.000 181.500,1095.000" fill="#c2d0ff" transform="rotate(45 202.500 1095.000)"/>
<polygon points="330.000,1020.000 405.000,1095.000 330.000,1170.000 255.000,1095.000" fill="none" stroke="#c2d0ff" stroke-width="2"/>
<polygon points="330.000,1065.000 360.000,1095.000 330.000,1125.000 300.000,1095.000" fill="#c2d0ff"/>
<polygon points="330.000,1074.000 351.000,1095.000 330.000,1116.000 309.000,1095.000" fill="#c2d0ff" transform="rotate(45 330.000 1095.000)"/>
<polygon points="457.500,1020.000 532.500,1095.000 457.500,1170.000 382.500,1095.000" fill="none" stroke="#c2d0ff" stroke-width="2"/>
<polygon points="457.500,1065.000 487.500,1095.000 457.500,1125.000 427.500,1095.000" fill="#c2d0ff"/>
<polygon points="457.500,1074.000 478.500,1095.000 457.500,1116.000 436.500,1095.000" fill="#c2d0ff" transform="rotate(45 457.500 1095.000)"/>
<polygon points="585.000,1020.000 660.000,1095.000 585.000,1170.000 510.000,1095.000" fill="none" stroke="#c2d0ff" stroke-width="2"/>
<polygon points="585.000,1065.000 615.000,1095.000 585.000,1125.000 555.000,1095.000" fill="#c2d0ff"/>
<polygon points="585.000,1074.000 606.000,1095.000 585.000,1116.000 564.000,1095.000" fill="#c2d0ff" transform="rotate(45 585.000 1095.000)"/>
<polygon points="712.500,1020.000 787.500,1095.000 712.500,1170.000 637.500,1095.000" fill="none" stroke="#c2d0ff" stroke-width="2"/>
<polygon points="712.500,1065.000 742.500,1095.000 712.500,1125.000 682.500,1095.000" fill="#c2d0ff"/>
<polygon points="712.500,1074.000 733.500,1095.000 712.500,1116.000 691.500,1095.000" fill="#c2d0ff" transform="rotate(45 712.500 1095.000)"/>
<polygon points="840.000,1020.000 915.000,1095.000 840.000,1170.000 765.000,1095.000" fill="none" stroke="#c2d0ff" stroke-width="2"/>
<polygon points="840.000,1065.000 870.000,1095.000 840.000,1125.000 810.000,1095.000" fill="#c2d0ff"/>
<polygon points="840.000,1074.000 861.000,1095.000 840.000,1116.000 819.000,1095.000" fill="#c2d0ff" transform="rotate(45 840.000 1095.000)"/>
<polygon points="967.500,1020.000 1042.500,1095.000 967.500,1170.000 892.500,1095.000" fill="none" stroke="#c2d0ff" stroke-width="2"/>
<polygon points="967.500,1065.000 997.500,1095.000 967.500,1125.000 937.500,1095.000" fill="#c2d0ff"/>
<polygon points="967.500,1074.000 988.500,1095.000 967.500,1116.000 946.500,1095.000" fill="#c2d0ff" transform="rotate(45 967.500 1095.000)"/>
<polygon points="1095.000,1020.000 1170.000,1095.000 1095.000,1170.000 1020.000,1095.000" fill="none" stroke="#c2d0ff" stroke-width="2"/>
<polygon points="1095.000,1065.000 1125.000,1095.000 1095.000,1125.000 1065.000,1095.000" fill="#c2d0ff"/>
<polygon points="1095.000,1074.000 1116.000,1095.000 1095.000,1116.000 1074.000,1095.000" fill="#c2d0ff" transform="rotate(45 1095.000 1095.000)"/>
<polygon points="1222.500,1020.000 1297.500,1095.000 1222.500,1170.000 1147.500,1095.000" fill="none" stroke="#c2d0ff" stroke-width="2"/>
<polygon points="1222.500,1065.000 1252.500,1095.000 1222.500,1125.000 1192.500,1095.000" fill="#c2d0ff"/>
<polygon points="1222.500,1074.000 1243.500,1095.000 1222.500,1116.000 1201.500,1095.000" fill="#c2d0ff" transform="rotate(45 1222.500 1095.000)"/>
<polygon points="1350.000,1020.000 1425.000,1095.000 1350.000,1170.000 1275.000,1095.000" fill="none" stroke="#c2d0ff" stroke-width="2"/>
<polygon points="1350.000,1065.000 1380.000,1095.000 1350.000,1125.000 1320.000,1095.000" fill="#c2d0ff"/>
<polygon points="1350.000,1074.000 1371.000,1095.000 1350.000,1116.000 1329.000,1095.000" fill="#c2d0ff" transform="rotate(45 1350.000 1095.000)"/>
<polygon points="1477.500,1020.000 1552.500,1095.000 1477.500,1170.000 1402.500,1095.000" fill="none" stroke="#c2d0ff" stroke-width="2"/>
<polygon points="1477.500,1065.000 1507.500,1095.000 1477.500,1125.000 1447.500,1095.000" fill="#c2d0ff"/>
<polygon points="1477.500,1074.000 1498.500,1095.000 1477.500,1116.000 1456.500,1095.000" fill="#c2d0ff" transform="rotate(45 1477.500 1095.000)"/>
<polygon points="1605.000,1020.000 1680.000,1095.000 1605.000,1170.000 1530.000,1095.000" fill="none" stroke="#c2d0ff" stroke-width="2"/>
<polygon points="1605.000,1065.000 1635.000,1095.000 1605.000,1125.000 1575.000,1095.000" fill="#c2d0ff"/>
<polygon points="1605.000,1074.000 1626.000,1095.000 1605.000,1116.000 1584.000,1095.000" fill="#c2d0ff" transform="rotate(45 1605.000 1095.000)"/>
<polygon points="1732.500,1020.000 1807.500,1095.000 1732.500,1170.000 1657.500,1095.000" fill="none" stroke="#c2d0ff" stroke-width="2"/>
<polygon points="1732.500,1065.000 1762.500,1095.000 1732.500,1125.000 1702.500,1095.000" fill="#c2d0ff"/>
<polygon points="1732.500,1074.000 1753.500,1095.000 1732.500,1116.000 1711.500,1095.000" fill="#c2d0ff" transform="rotate(45 1732.500 1095.000)"/>
<polygon points="1860.000,1020.000 1935.000,1095.000 1860.000,1170.000 1785.000,1095.000" fill="none" stroke="#c2d0ff" stroke-width="2"/>
<polygon points="1860.000,1065.000 1890.000,1095.000 1860.000,1125.000 1830.000,1095.000" fill="#c2d0ff"/>
<polygon points="1860.000,1074.000 1881.000,1095.000 1860.000,1116.000 1839.000,1095.000" fill="#c2d0ff" transform="rotate(45 1860.000 1095.000)"/>
<polygon points="138.750,1147.500 213.750,1222.500 138.750,1297.500 63.750,1222.500" fill="none" stroke="#c2d0ff" stroke-width="2"/>
<polygon points="138.750,1192.500 168.750,1222.500 138.750,1252.500 108.750,1222.500" fill="#c2d0ff"/>
<polygon points="138.750,1201.500 159.750,1222.500 138.750,1243.500 117.750,1222.500" fill="#c2d0ff" transform="rotate(45 138.750 1222.500)"/>
<polygon points="266.250,1147.500 341.250,1222.500 266.250,1297.500 191.250,1222.500" fill="none" stroke="#c2d0ff" stroke-width="2"/>
<polygon points="266.250,1192.500 296.250,1222.500 266.250,1252.500 236.250,1222.500" fill="#c2d0ff"/>
<polygon points="266.250,1201.500 287.250,1222.500 266.250,1243.500 245.250,1222.500" fill="#c2d0ff" transform="rotate(45 266.250 1222.500)"/>
<polygon points="393.750,1147.500 468.750,1222.500 393.750,1297.500 318.750,1222.500" fill="none" stroke="#c2d0ff" stroke-width="2"/>
<polygon points="393.750,1192.500 423.750,1222.500 393.750,1252.500 363.750,1222.500" fill="#c2d0ff"/>
<polygon points="393.750,1201.500 414.750,1222.500 393.750,1243.500 372.750,1222.500" fill="#c2d0ff" transform="rotate(45 393.750 1222.500)"/>
<polygon points="521.250,1147.500 596.250,1222.500 521.250,1297.500 446.250,1222.500" fill="none" stroke="#c2d0ff" stroke-width="2"/>
<polygon points="521.250,1192.500 551.250,1222.500 521.250,1252.500 491.250,1222.500" fill="#c2d0ff"/>
<polygon points="521.250,1201.500 542.250,1222.500 521.250,1243.500 500.250,1222.500" fill="#c2d0ff" transform="rotate(45 521.250 1222.500)"/>
<polygon points="648.750,1147.500 723.750,1222.500 648.750,1297.500 573.750,1222.500" fill="none" stroke="#c2d0ff" stroke-width="2"/>
<polygon points="648.750,1192.500 678.750,1222.500 648.750,1252.500 618.750,1222.500" fill="#c2d0ff"/>
<polygon points="648.750,1201.500 669.750,1222.500 648.750,1243.500 627.750,1222.500" fill="#c2d0ff" transform="rotate(45 648.750 1222.500)"/>
<polygon points="776.250,1147.500 851.250,1222.500 776.250,1297.500 701.250,1222.500" fill="none" stroke="#c2d0ff" stroke-width="2"/>
<polygon points="776.250,1192.500 806.250,1222.500 776.250,1252.500 746.250,1222.500" fill="#c2d0ff"/>
<polygon points="776.250,1201.500 797.250,1222.500 776.250,1243.500 755.250,1222.500" fill="#c2d0ff" transform="rotate(45 776.250 1222.500)"/>
<polygon points="903.750,1147.500 978.750,1222.500 903.750,1297.500 828.750,1222.500" fill="none" stroke="#c2d0ff" stroke-width="2"/>
<polygon points="903.750,1192.500 933.750,1222.500 903.750,1252.500 873.750,1222.500" fill="#c2d0ff"/>
<polygon points="903.750,1201.500 924.750,1222.500 903.750,1243.500 882.750,1222.500" fill="#c2d0ff" transform="rotate(45 903.750 1222.500)"/>
<polygon points="1031.250,1147.500 1106.250,1222.500 1031.250,1297.500 956.250,1222.500" fill="none" stroke="#c2d0ff" stroke-width="2"/>
<polygon points="1031.250,1192.500 1061.250,1222.500 1031.250,1252.500 1001.250,1222.500" fill="#c2d0ff"/>
<polygon points="1031.250,1201.500 1052.250,1222.500 1031.250,1243.500 1010.250,1222.500" fill="#c2d0ff" transform="rotate(45 1031.250 1222.500)"/>
<polygon points="1158.750,1147.500 1233.750,1222.500 1158.750,1297.500 1083.750,1222.500" fill="none" stroke="#c2d0ff" stroke-width="2"/>
<polygon points="1158.750,1192.500 1188.750,1222.500 1158.750,1252.500 1128.750,1222.500" fill="#c2d0ff"/>
<polygon points="1158.750,1201.500 1179.750,1222.500 1158.750,1243.500 1137.750,1222.500" fill="#c2d0ff" transform="rotate(45 1158.750 1222.500)"/>
<polygon points="1286.250,1147.500 1361.250,1222.500 1286.250,1297.500 1211.250,1222.500" fill="none" stroke="#c2d0ff" stroke-width="2"/>
<polygon points="1286.250,1192.500 1316.250,1222.500 1286.250,1252.500 1256.250,1222.500" fill="#c2d0ff"/>
<polygon points="1286.250,1201.500 1307.250,1222.500 1286.250,1243.500 1265.250,1222.500" fill="#c2d0ff" transform="rotate(45 1286.250 1222.500)"/>
<polygon points="1413.750,1147.500 1488.750,1222.500 1413.750,1297.500 1338.750,1222.500" fill="none" stroke="#c2d0ff" stroke-width="2"/>
<polygon points="1413.750,1192.500 1443.750,1222.500 1413.750,1252.500 1383.750,1222.500" fill="#c2d0ff"/>
<polygon points="1413.750,1201.500 1434.750,1222.500 1413.750,1243.500 1392.750,1222.500" fill="#c2d0ff" transform="rotate(45 1413.750 1222.500)"/>
<polygon points="1541.250,1147.500 1616.250,1222.500 1541.250,1297.500 1466.250,1222.500" fill="none" stroke="#c2d0ff" stroke-width="2"/>
<polygon points="1541.250,1192.500 1571.250,1222.500 1541.250,1252.500 1511.250,1222.500" fill="#c2d0ff"/>
<polygon points="1541.250,1201.500 1562.250,1222.500 1541.250,1243.500 1520.250,1222.500" fill="#c2d0ff" transform="rotate(45 1541.250 1222.500)"/>
<polygon points="1668.750,1147.500 1743.750,1222.500 1668.750,1297.500 1593.750,1222.500" fill="none" stroke="#c2d0ff" stroke-width="2"/>
<polygon points="1668.750,1192.500 1698.750,1222.500 1668.750,1252.500 1638.750,1222.500" fill="#c2d0ff"/>
<polygon points="1668.750,1201.500 1689.750,1222.500 1668.750,1243.500 1647.750,1222.500" fill="#c2d0ff" transform="rotate(45 1668.750 1222.500)"/>
<polygon points="1796.250,1147.500 1871.250,1222.500 1796.250,1297.500 1721.250,1222.500" fill="none" stroke="#c2d0ff" stroke-width="2"/>
<polygon points="1796.250,1192.500 1826.250,1222.500 1796.250,1252.500 1766.250,1222.500" fill="#c2d0ff"/>
<polygon points="1796.250,1201.500 1817.250,1222.500 1796.250,1243.500 1775.250,1222.500" fill="#c2d0ff" transform="rotate(45 1796.250 1222.500)"/>
<polygon points="1923.750,1147.500 1998.750,1222.500 1923.750,1297.500 1848.750,1222.500" fill="none" stroke="#c2d0ff" stroke-width="2"/>
<polygon points="1923.750,1192.500 1953.750,1222.500 1923.750,1252.500 1893.750,1222.500" fill="#c2d0ff"/>
<polygon points="1923.750,1201.500 1944.750,1222.500 1923.750,1243.500 1902.750,1222.500" fill="#c2d0ff" transform="rotate(45 1923.750 1222.500)"/>
</svg>